<svg xmlns="http://www.w3.org/2000/svg" width="81" height="81"><path fill="#FFF" d="M0 0h81v81H0z"/><path fill="#180000" d="m49 14 2.313.563c4.226.5 7.91.02 12.101-.602C66 14 66 14 68.133 15.069c2.75 2.844 2.353 4.973 2.328 8.872l-.003 2.068a336 336 0 0 1-.046 4.34 390 390 0 0 0-.04 6.544c-.1 19.835-.1 19.835-4.372 24.107-4.248 1.255-8.475 1.061-12.855.914l-2.252-.064q-2.343-.069-4.687-.147c-2.396-.078-4.792-.145-7.188-.21l-4.561-.141-2.175-.06C27.23 61.114 27.23 61.114 25 60c-2.429-5.263-2.201-10.337-2-16 2.479 2.2 3.612 4.064 4.688 7.188l.761 2.167L29 55l8 1-1-2a71 71 0 0 1-.25-5l-.078-2.687L36 44l3-2 .184 2.484.254 3.266c.08 1.067.162 2.135.246 3.234.257 2.453.634 4.655 1.316 7.016h8l-.5-1.562c-.666-3.246-.74-6.133-.5-9.438l3-3 1 12 5.375-.937 3.023-.528C62.97 54.123 62.97 54.123 65 53c.47-3.046.47-3.046.625-6.562l.227-3.63L66 40c-3.12-1.793-5.677-2.343-9.25-2.625l-2.703-.227L52 37v-2c5.075-1.263 9.728-2.27 15-2v-7l-1.758.473C60.556 27.64 56.741 28.503 52 27l-2-3h17v-7l-2 1a190 190 0 0 1-7.625.063l-2.14-.014Q52.617 18.029 50 18zM9.688 31.313 12 32c.418 6.054.113 9.182-4 14l-3 1c-1.625-1.437-1.625-1.437-3-4 .257-3.958.93-7.644 3.418-10.797C7 31 7 31 9.688 31.313"/><path fill="#180000" d="M28 33h3v2l2.188-1.062C36.373 32.876 37.835 33 41 34l3 2v2l-3.437-.062C37.184 37.584 37.184 37.584 36 39c-3.437.188-3.437.188-7 0l-2-2c.375-2.125.375-2.125 1-4M28 21l2.625 1.063c3.67 1.02 5.69.578 9.375-.063 2.375.938 2.375.938 4 2v2c-4.77 1.316-9.008 2.475-14 2-2-2-2-2-2.125-4.625z"/><path fill="#FFF" d="M8 33h2c.348 4.877-.583 7.77-3 12H5c-1.411-3.207-.894-4.284.375-7.687C7 34 7 34 8 33"/></svg>