<svg xmlns="http://www.w3.org/2000/svg" width="59" height="59">
  <path fill="#140000" d="m32 7 2.375.563c3.968.478 7.328.09 11.258-.504C48.373 6.99 49.724 7.508 52 9c1.475 2.95 1.142 5.936 1.133 9.168l.003 2.16q0 2.27-.006 4.537c-.005 2.296 0 4.591.007 6.887q0 2.208-.004 4.416l.006 2.059c-.053 11.059-.053 11.059-2.327 14.648-4.565 2.834-10.358 2.22-15.546 2.04l-2.18-.065q-2.265-.069-4.528-.147c-2.315-.078-4.63-.145-6.945-.21l-4.41-.141-2.099-.06C10.231 54.114 10.231 54.114 8 53c-2.249-5.158-2.584-10.456-3-16h2c3 6.5 3 6.5 3 11l10 2-1-3a99 99 0 0 1-.062-5.187l.027-2.731L19 37h3l.184 2.047.253 2.703.247 2.672A44 44 0 0 0 24 51h8l-.5-1.562c-.666-3.246-.74-6.133-.5-9.438l3-3 1 12 5.375-.937 3.023-.528C45.97 47.123 45.97 47.123 48 46c.47-3.046.47-3.046.625-6.562l.227-3.63L49 33c-3.12-1.793-5.677-2.343-9.25-2.625l-2.703-.227L35 30v-2c5.075-1.263 9.728-2.27 15-2v-7l-1.758.473C43.556 20.64 39.741 21.503 35 20l-2-3 1.723.035C39.607 17.092 44.185 16.82 49 16v-5H33z"/>
  <path fill="#140000" d="M11 26h3v2l2.125-1.062c3.464-1.13 5.409-1.016 8.875.062 1.375 2.063 1.375 2.063 2 4l-2.875-.062C21.093 30.774 21.093 30.774 19 32c-2.333.04-4.667.043-7 0-1.062-1.875-1.062-1.875-2-4zM11 14l2.563 1.063C17.46 16.125 20.052 15.596 24 15l3 2v2c-4.77 1.316-9.008 2.475-14 2-2-2-2-2-2.125-4.625z"/>
</svg>
