<svg xmlns="http://www.w3.org/2000/svg" width="91" height="91"><path fill="#FFF" d="M0 0h91v91H0z"/><path fill="#100000" d="M61 23q4.406-.118 8.813-.187l2.525-.077 2.432-.029 2.237-.048C79 23 79 23 80.742 24.07c1.945 2.986 1.63 5.597 1.621 9.126l.002 2.142a474 474 0 0 1-.029 4.494c-.023 2.265-.02 4.529-.014 6.794C82.307 53.979 82.027 60.875 80 68c-5.33 1.792-9.748 2.223-15.34 1.977l-2.324-.076c-2.425-.082-4.85-.179-7.273-.276q-2.483-.088-4.963-.172-6.05-.21-12.1-.453a393 393 0 0 1-1.488-3.75l-.837-2.11c-.997-3.16-.88-5.849-.675-9.14l3 1c1.041 2.945 1.435 5.916 2 9l10 2-1-2.062c-1.202-3.53-1.343-6.231-1-9.938 1.52-1.71 1.52-1.71 3-3l.184 2.266.254 2.984c.08.975.162 1.95.246 2.953.267 2.362.67 4.516 1.316 6.797l8-1-.625-3.75c-.436-3.37-.409-5.378 1.625-8.25h1l2 11c6.741-.56 6.741-.56 13-3V48c-4.816-1.536-4.816-1.536-9.812-1.937L66 46l-2-3c5.08-.847 9.848-1.09 15-1l1-7-2.957.254-3.856.309-3.832.316C66 36 66 36 63 35v-3l2.938.563c4.446.656 8.643.088 13.062-.563v-6H62z"/><path fill="#100000" d="m49 34 4 2v5h-5c-.625-2.375-.625-2.375-1-5zM9 33h2c-.114 1.46-.242 2.917-.375 4.375-.07.812-.14 1.624-.21 2.46C10 42 10 42 8 44z"/></svg>