<svg xmlns="http://www.w3.org/2000/svg" width="59" height="59"><path fill="#120000" d="M33 6c3.125-.087 6.25-.14 9.375-.187l2.695-.077 2.578-.029 2.38-.048L52 6c2.479 3.718 2.306 6.617 2.3 10.922l.016 7.3c-.003 2.505.02 5.008.045 7.512q.004 2.407.002 4.813l.028 2.248C54.347 43.875 53.744 47.652 51 52c-4.962 1.481-10.191 1.07-15.34.879l-2.324-.072q-3.638-.116-7.273-.245l-4.963-.158Q15.05 52.211 9 52c-1.277-4.293-2.248-7.948-2.125-12.437l.055-2.622L7 35c2.536 2.216 3.382 3.823 4.188 7.063.637 2.142.637 2.142 1.812 3.937 2.735 1.34 4.928 1.597 8 2l-.484-1.777C19.78 43.056 19.765 40.237 20 37c1.516-1.715 1.516-1.715 3-3l.184 2.266.253 2.984.247 2.953c.267 2.362.67 4.516 1.316 6.797h8l-.254-2.082-.309-2.73-.316-2.708C32 39 32 39 33 36h2l2 12 13-3V31c-2.569-1.284-4.766-1.33-7.625-1.562l-3.04-.254L37 29l-1-3c5.08-.847 9.848-1.09 15-1v-6l-2.992.035c-1.282.01-2.563.018-3.883.027l-3.867.036C37 19 37 19 35 18v-3l2.938.563c4.446.656 8.643.088 13.062-.563V9c-1.048.095-2.096.19-3.176.29l-4.136.335-2.092.195c-3.852.298-5.285.388-8.596-1.82z"/><path fill="#120000" d="M20 17q2.514.428 5 1v6a88 88 0 0 1-5 1c-1-1-1-1-1.125-4C19 18 19 18 20 17"/></svg>