<svg xmlns="http://www.w3.org/2000/svg" width="59" height="59"><path fill="#100" d="M32 7c3.125-.029 6.25-.047 9.375-.062l2.695-.026 2.578-.01 2.38-.016C51 7 51 7 53 8c1.71 5.13 1.186 10.608 1.185 15.977.002 2.12.02 4.239.04 6.359.081 18.147.081 18.147-3.792 22.374-3.47 1.84-6.763 1.68-10.593 1.618l-2.383-.006q-2.487-.01-4.975-.04c-2.539-.032-5.077-.042-7.617-.048l-4.838-.03-2.3-.014C14.56 54.147 12.023 54.008 9 53c-1.855-3.553-2.338-6.847-2.625-10.812l-.227-2.958L6 37l3 1c.668 1.996.668 1.996 1.188 4.438.632 2.46.632 2.46 1.812 4.562 2.756 1.455 4.842 1.638 8 2-.095-.675-.19-1.35-.29-2.047l-.335-2.703-.352-2.672c-.025-2.807.529-4.212 1.977-6.578h2l.184 2.555.253 3.32.247 3.305c.146 2.767.146 2.767 1.316 4.82 1.895.465 1.895.465 4.063.625L33 50l-1-2c-.095-1.498-.13-3-.125-4.5l-.008-2.406C32 39 32 39 33 37h2l2 11c6.436-.32 6.436-.32 12-3 1.097-4.66 1.097-9.228 1-14l-13-1-1-3 14-2 1-6-2.957.29c-1.272.11-2.545.22-3.855.335l-3.833.352C37 20 37 20 34 18v-2l2.938.625c4.59.687 8.643-.413 13.062-1.625v-5c-.88.095-1.76.19-2.668.29-1.161.11-2.323.22-3.52.335l-3.48.352C36.967 11 34.988 10.474 32 9z"/><path fill="#100" d="m17 19 1 5c-3.75 1.125-3.75 1.125-6 0v-4c2-1 2-1 5-1M25 19l3 1 1 3-1 2-4-1z"/></svg>