<svg xmlns="http://www.w3.org/2000/svg" width="91" height="91"><path fill="#FFF" d="M0 0h91v91H0z"/><path fill="#100000" d="M57 18a819 819 0 0 1 9.875-.187l2.84-.077 2.715-.029 2.507-.048L77 18c2.462 3.693 2.258 5.571 2.266 9.977l.005 2.074q.002 2.177-.01 4.353c-.01 2.192 0 4.384.012 6.576.025 18.522.025 18.522-3.842 22.726-3.457 1.84-6.737 1.704-10.556 1.657l-2.375.002a577 577 0 0 1-4.963-.029c-2.528-.023-5.055-.02-7.584-.014q-2.415-.007-4.828-.021l-2.286.003C35.961 65.21 35.961 65.21 33 63c-2.179-5.338-2.233-10.291-2-16h2c2.458 3.687 3.012 6.697 4 11l8 2c-.095-.675-.19-1.35-.29-2.047l-.335-2.703-.352-2.672c-.025-2.807.529-4.212 1.977-6.578h2l.184 2.3.254 3.013c.08.986.162 1.972.246 2.988.234 2.793.234 2.793 1.316 5.699l8 1-1-3c-.475-7.05-.475-7.05 1-10h2l2 11c6.393-.36 6.393-.36 12-3 .708-3.34.708-3.34.75-7.125l.172-3.883L75 42l-13-1-1-3 14-2 1-6-2.957.29c-1.272.11-2.545.22-3.856.335l-3.832.352C62 31 62 31 59 29v-2h16v-6c-1.048.095-2.096.19-3.176.29l-4.136.335-2.092.195c-3.852.298-5.285.388-8.596-1.82zM11 27c2.188.313 2.188.313 4 1 .313 2.688.313 2.688 0 6-2.437 2.813-2.437 2.813-5 5l-1 1h7c-3.006 3.006-5.824 2.596-10 3l-1-4 7-6-1-3H8c1.25-1.562 1.25-1.562 3-3"/><path fill="#100000" d="m38 30 5 1-1 5-5-1zM50 30l3 1c.688 2.063.688 2.063 1 4l-5 1a100 100 0 0 1 0-5z"/></svg>