<svg xmlns="http://www.w3.org/2000/svg" width="59" height="59"><path fill="#120000" d="M32 7c3.125-.029 6.25-.047 9.375-.062l2.695-.026 2.578-.01 2.38-.016C51 7 51 7 53 8c1.147 6.999 1.177 13.924 1 21l-.054 2.313c-.068 2.542-.16 5.083-.258 7.625l-.068 2.476C53.413 45.944 53.2 49.512 50 53c-4.748 1.155-9.395 1.057-14.242.879l-2.329-.072q-3.653-.116-7.304-.245l-4.977-.158Q15.073 53.211 9 53q-.745-1.911-1.482-3.828l-.833-2.153c-.82-2.417-.992-4.475-.872-7.019l.082-2.312L6 36c3 2 3 2 3.73 4.383l.457 2.742c.16.91.318 1.82.481 2.758L11 48l9 1-1-4c-.25-3.563-.25-3.563 0-7l3-3 2 15h9l-1.062-3.687c-.873-3.434-1.015-5.866.062-9.313l3 1 1 11q2.688-.715 5.375-1.437l3.023-.81c2.556-.655 2.556-.655 4.602-1.753.47-3.276.47-3.276.625-7.062l.227-3.91L50 31c-1.265-.09-1.265-.09-2.555-.184l-3.32-.253-3.305-.247C38 30 38 30 36 29v-2c4.763-.953 9.167-1.083 14-1l1-7-15 1-2-4 2.813.563c3.2.678 3.2.678 6.187-.563 2.333-.04 4.667-.044 7 0v-6c-1.048.095-2.096.19-3.176.29l-4.136.335-2.092.195c-3.852.298-5.285.388-8.596-1.82z"/><path fill="#120000" d="M15 24c.043 1.666.04 3.334 0 5-1 1-1 1-3.562 1.063L9 30v-6c2.49-1.245 3.41-.777 6 0M23 23c2.188.313 2.188.313 4 1l-1 6-5-1-1-3c1.25-1.562 1.25-1.562 3-3M14 10h6l1 3-3 3-4-2z"/></svg>