<svg xmlns="http://www.w3.org/2000/svg" width="91" height="91"><path fill="#FFF" d="M0 0h91v91H0z"/><path fill="#100" d="M57 18c3.125-.058 6.25-.094 9.375-.125l2.695-.05 2.578-.02 2.38-.032C76 18 76 18 78 20c.345 3.028.566 5.96.688 9l.118 2.69c.222 6.097.19 12.154-.118 18.248l-.105 2.236C78.098 59.809 78.098 59.809 76 63c-5.263 1.947-9.779 2.222-15.34 1.977l-2.324-.076c-2.425-.082-4.85-.179-7.273-.276q-2.483-.088-4.963-.172-6.05-.21-12.1-.453c-2.321-5.688-3.33-9.836-3-16l3 1 2 10 10 2-1-2.062c-1.202-3.53-1.343-6.231-1-9.938l3-3 2 15h9l-1-2c-.07-1.874-.084-3.75-.062-5.625l.027-3.04L57 48l3 1 1 10c6.918-.25 6.918-.25 13-3 .708-3.34.708-3.34.75-7.125l.172-3.883L75 42l-3.625-.437A212 212 0 0 1 61 40v-2l14-2 1-6-2.957.29c-1.272.11-2.545.22-3.856.335l-3.832.352C62 31 62 31 59 29v-2l2.938.563c4.446.656 8.643.088 13.062-.563v-6H58zM18 31c.625 2.375.625 2.375 1 5l-2 2 2 2c-.125 2-.125 2-1 4-3.18 2.355-6.151 2.175-10 2l1.75-.75C12.3 43.833 14.018 42.124 16 40l-4-1 4-4-1-2-3 1-1-2c2.463-1.231 4.28-1.072 7-1"/><path fill="#100" d="m40 35-1 6-5-1v-5c2.49-1.245 3.41-.777 6 0M47 35l5 1-1 4h-5zM40 21q2.514.428 5 1c-.312 1.937-.312 1.937-1 4l-3 1-2-5z"/></svg>