<svg xmlns="http://www.w3.org/2000/svg" width="59" height="59"><defs><mask id="cutout-mask"><rect width="59" height="59" fill="white"/><path d="M13 13h12v11c-3.947.79-7.043 1.092-11 1-.982-4.053-1.082-7.839-1-12" fill="black"/></mask></defs><path fill="#100" d="M33 6c3.125-.087 6.25-.14 9.375-.187l2.695-.077 2.578-.029 2.38-.048L52 6c2.498 3.747 2.258 5.754 2.266 10.23l.005 2.15q.002 2.253-.01 4.506c-.01 2.276 0 4.551.012 6.827q0 2.196-.007 4.392l.012 2.034C54.23 41.122 53.643 45.318 52 50c-2.85 2.74-5.242 3.159-9.056 3.249a241 241 0 0 1-4.745-.175l-2.534-.08c-2.66-.087-5.319-.197-7.977-.306q-2.712-.096-5.424-.186C17.842 52.352 13.42 52.181 9 52c-1.33-3.857-2.295-7.303-2.625-11.375l-.227-2.648L6 36l2-1 .559 2.336C9.466 40.475 10.366 43.165 12 46c2.964 1.536 5.685 1.908 9 2l-1-2a69 69 0 0 1-.25-4.937l-.078-2.653C20.057 35.58 20.807 34.75 23 33l.184 2.52.253 3.292.247 3.27C23.902 45.06 23.902 45.06 25 48l8 1-1-3c-.475-7.05-.475-7.05 1-10h2l2 11c6.167-.964 6.167-.964 12-3 .47-3.046.47-3.046.625-6.562l.227-3.63L50 31c-3.319-1.45-6.207-2.302-9.812-2.625l-2.395-.227L36 28v-2c5.05-1.036 9.874-1.103 15-1v-7l-2.957.324-3.855.363-3.833.387C37 19 37 19 35.051 17.52L34 16c3.56-1.187 6.438-1.097 10.188-1.062l3.855.027L51 15V9H33z" mask="url(#cutout-mask)"/><path fill="#100" d="M28 10c1 1 1 1 1.098 4.816a763 763 0 0 1-.035 4.746l-.014 2.444Q29.029 25.003 29 28c-3.223 1.074-5.615 1.133-9 1.125l-3.187.008C14 29 14 29 11 28a125 125 0 0 1-1-18q3.093-.293 6.188-.562l3.48-.317c3.032-.11 5.42.075 8.332.879" mask="url(#cutout-mask)"/></svg>