<svg xmlns="http://www.w3.org/2000/svg" width="98" height="91"><path fill="#FEFEFE" d="M0 0h98v91H0z"/><path fill="#120000" d="M61 19q4.438-.04 8.875-.062l2.55-.026 2.442-.01 2.254-.016C79 19 79 19 81 20c.95 2.848 1.129 4.625 1.133 7.578l.006 2.749-.014 2.923-.01 2.982C81.947 60.192 81.947 60.192 79 64c-4.79 2.069-9.12 2.201-14.242 1.977l-2.329-.076c-2.435-.082-4.87-.179-7.304-.276q-2.489-.088-4.977-.172Q44.073 65.241 38 65c-2.042-3.931-3.388-6.936-3.687-11.375l-.2-2.648L34 49l2-1 .559 2.3c1.547 5.947 1.547 5.947 5.71 10.098 2.248.715 4.4 1.258 6.731 1.602l-.492-1.71c-.528-2.378-.641-4.483-.633-6.915l-.008-2.352C48 49 48 49 49 47h2l.184 2.555.254 3.32.246 3.305c.146 2.767.146 2.767 1.316 4.82 1.895.465 1.895.465 4.063.625L61 62l-.254-2.082-.309-2.73-.316-2.708C60 52 60 52 61 49h2l2 11a504 504 0 0 0 13-2V44c-4.033-2.026-4.033-2.026-8.125-2.062C66 42 66 42 64 41v-2c5.05-1.036 9.874-1.103 15-1l-1-7-2.52.29c-1.086.11-2.173.22-3.293.335l-3.269.352C66 32 66 32 63 30v-2l2.25.563c2.829.45 4.048.152 6.75-.563 2.333-.039 4.667-.045 7 0v-6H62z"/><path fill="#120000" d="M57 24v17c-3.05 1.525-6.221 1.144-9.562 1.125l-2.116.012c-5.195-.01-5.195-.01-6.322-1.137-1.078-5.964-1.096-11.961-1-18 2.04-.224 4.082-.428 6.125-.625l3.445-.352C51 22 51 22 57 24"/><path fill="#FFF" d="M41 25c1.98.113 3.959.241 5.938.375 1.102.07 2.204.14 3.34.21L53 26c1.203 2.405 1.1 3.95 1.063 6.625l-.028 2.477L54 37c-4.053.982-7.839 1.082-12 1-1.102-4.41-1.077-8.484-1-13"/><path fill="#120000" d="M20 31h1q-.212 2.438-.437 4.875l-.247 2.742C20 41 20 41 19 43h-2l1-5h-5l-1-5 2 1v2c1.95-.195 1.95-.195 4-1 1.284-1.984 1.284-1.984 2-4"/></svg>