<svg xmlns="http://www.w3.org/2000/svg" width="59" height="59"><defs><mask id="cutout-mask"><rect width="59" height="59" fill="white"/><path d="m14.723 19.902 3.34.035 3.347.028L24 20v11l-13-1c-.098-6.934-.098-6.934 0-9 1-1 1-1 3.723-1.098" fill="black"/></mask></defs><path fill="#100" d="M32 7q4.407-.08 8.813-.125l2.525-.05 2.432-.02 2.237-.032C50 7 50 7 53 9c.427 3.044.657 5.879.75 8.938l.103 2.681c.193 6.28.156 12.542-.103 18.819l-.08 2.38C53.426 46.261 53.096 49.682 50 53c-6.803 1.327-13.652 1.186-20.553 1.185-2.14.003-4.278.02-6.418.04q-2.051.005-4.103.005l-3.737.013C12.154 54.012 10.475 53.723 8 52c-2.39-4.9-2.213-9.68-2-15l3 1 2 10 10 2-1-2.125c-1.367-3.93-1.771-7.217.016-11.059L21 35c-.922-.09-.922-.09-1.863-.184l-2.45-.254c-.8-.08-1.6-.162-2.425-.246C12 34 12 34 9 33c-1.363-2.725-1.17-4.96-1.187-8l-.043-3.25C8 19 8 19 10 17c5.492-1.408 11.363-1.327 17-1 1 1 1 1 1.098 4.816a763 763 0 0 1-.035 4.747l-.014 2.443Q28.029 31.003 28 34l-6 1q.214 2.625.438 5.25c.08.975.162 1.95.246 2.953.267 2.362.67 4.516 1.316 6.797l8-1-.625-3.187C31 42.003 31.284 40.332 33 37l2 1c.414 2.504.414 2.504.625 5.563l.227 3.066L36 49q2.127-.428 4.25-.875l2.39-.492c2.716-.644 2.716-.644 6.36-2.633V32c-2.569-1.284-4.766-1.33-7.625-1.562l-3.04-.254L36 30l-1-3c5.08-.847 9.848-1.09 15-1l1-7-3.21.254-4.165.308-2.117.17c-5.281.381-5.281.381-7.508-.732v-3l3.5.563c4.364.56 8.167.133 12.5-.563v-6c-1.048.095-2.096.19-3.176.29l-4.136.335-2.092.195c-3.852.298-5.285.388-8.596-1.82z" mask="url(#cutout-mask)"/><path fill="#100" d="M27 16c1 1 1 1 1.098 4.816a763 763 0 0 1-.035 4.747l-.014 2.443Q28.029 31.003 28 34c-5.071 1.763-8.067 2.22-13.375.75l-3.148-.828C9 33 9 33 8 31c-.122-1.997-.175-4-.187-6l-.043-3.25C8 19 8 19 10 17c5.492-1.408 11.363-1.327 17-1" mask="url(#cutout-mask)"/><path fill="#100" d="M16 8h4l1 3-1 2h-4z"/></svg>