<svg xmlns="http://www.w3.org/2000/svg" width="101" height="90"><path fill="#FFF" d="M0 0h101v90H0z"/><path fill="#100" d="M67 22q4.407-.08 8.813-.125l2.525-.05 2.432-.02 2.237-.032C85 22 85 22 88 24c.304 2.839.42 5.456.398 8.297l.01 2.504q.002 2.628-.017 5.256c-.016 2.669 0 5.336.02 8.005q-.004 2.556-.013 5.11l.019 2.406C88.357 60.414 87.742 63.843 85 68c-2.624.81-4.296.976-7 1l-3.094.075c-3.657.06-7.31.061-10.969.05l-3.798.012-3.674-.004-3.325-.004C50 69 47.07 68.677 44 68c-3.521-4.44-3.288-10.623-3-16h2q.758 1.903 1.5 3.813l.844 2.144C46 60 46 60 46 63l10 2-1-2.125c-1.367-3.93-1.771-7.217.016-11.059L56 50l-2.59-.367-3.347-.508-3.34-.492L44 48c-1.363-2.725-1.17-4.96-1.187-8l-.043-3.25C43 34 43 34 45 32c5.492-1.408 11.363-1.327 17-1 2.043 2.043 1.185 6.137 1.188 8.938l.037 2.248c.005 1.94-.103 3.878-.225 5.814l-2 2h-4q.214 2.625.438 5.25c.08.975.162 1.95.246 2.953.267 2.362.67 4.516 1.316 6.797l8-1-.625-2.625c-.415-3.74.228-5.924 1.625-9.375l2 1c.414 2.504.414 2.504.625 5.563l.227 3.066L71 64q2.97-.713 5.938-1.437l3.34-.81C82.893 61.27 82.893 61.27 84 60c.235-2.35.414-4.706.563-7.062l.253-3.91L85 46l-13-1-1-3 14-1 1-7-15 1-2-3c2-1 2-1 4.063-.5 4.087.696 7.857.078 11.937-.5v-6l-2.922.29c-1.263.11-2.526.22-3.828.335l-3.797.352C71.164 25.999 69.69 25.78 67 24z"/><path fill="#100" d="M62 31c2.043 2.043 1.185 6.137 1.188 8.938l.037 2.248c.005 1.94-.103 3.878-.225 5.814-2.444 2.444-3.596 2.64-7 3-3.078-.488-3.078-.488-6.25-1.312l-3.203-.801C44 48 44 48 43 46c-.122-1.997-.175-4-.187-6l-.043-3.25C43 34 43 34 45 32c5.492-1.408 11.363-1.327 17-1"/><path fill="#FFF" d="M46 35h13v11l-13-1z"/><path fill="#100" d="M27.063 29.938 30 30c-2 2-2 2-4.062 3-2.107.846-2.107.846-2.938 3l1.938.688C27 38 27 38 27.75 40.625L28 43c-3.435 2.29-4.985 2.178-9 2v-3l4 1c.772-1.837.772-1.837 1-4-1.354-1.772-1.354-1.772-3-3 2.302-5.986 2.302-5.986 6.063-6.062M52 23l4 2-1 3h-4z"/></svg>