<svg xmlns="http://www.w3.org/2000/svg" width="59" height="59"><defs><mask id="cutout-mask"><rect width="59" height="59" fill="white"/><path d="M14 19h11v10H13c-.125-7.75-.125-7.75 1-10" fill="black"/></mask></defs><path fill="#100" d="M32 6q4.438-.04 8.875-.062l2.55-.026 2.442-.01 2.254-.016C50 6 50 6 52 7c1.165 3.494 1.144 6.632 1.133 10.266l.003 2.156q0 2.26-.006 4.519c-.005 2.287 0 4.573.007 6.86q0 2.201-.004 4.402l.006 2.05c-.055 11.355-.055 11.355-2.445 14.425-2.947 2.3-6.61 1.705-10.194 1.65l-2.521-.006a670 670 0 0 1-5.276-.04 862 862 0 0 0-8.078-.048l-5.125-.03-2.443-.014C13.79 53.148 11.119 53.04 8 52c-1.956-5.217-2.524-10.472-3-16l2-1c2.629 3.943 3.06 7.364 4 12l9 1-1-3c-.203-1.938-.203-1.938-.25-4l-.078-2.062C19.092 36.457 20.11 35.59 22 34l.184 2.3.253 3.013.247 2.988c.234 2.793.234 2.793 1.316 5.699l8 1-.29-1.828c-.11-.8-.22-1.599-.335-2.422l-.352-2.39c-.026-2.682.611-4.087 1.977-6.36h1l2 11 4.875-.437 2.742-.247C46.011 46.13 46.011 46.13 48 45c1.424-4.555 1.07-9.28 1-14l-13-2v-3l14-1 1-7-2.703.508-3.547.617-3.516.633c-3.27.245-4.559.03-7.234-1.758l1-3 2.5.563c4.12.514 7.408.072 11.5-.563v-5H33z" mask="url(#cutout-mask)"/><path fill="#100" d="M28 14c1 1 1 1 1.114 2.766l-.016 2.27-.01 2.45-.026 2.576-.013 2.588Q29.029 29.825 29 33c-4.14.83-7.683 1.023-11.875.563l-2.93-.31L12 33c-1.612-3.549-2.252-6.295-2.187-10.187l.019-2.606C10 18 10 18 11 16c2.547-.633 2.547-.633 5.75-1.125l3.172-.508c2.744-.327 5.32-.516 8.078-.367" mask="url(#cutout-mask)"/><path fill="#100" d="m21 7 4 1-1 5-4-1zM13 8h4l-1 5-4-1z"/></svg>