<svg xmlns="http://www.w3.org/2000/svg" width="103" height="90"><path fill="#FFF" d="M0 0h103v90H0z"/><path fill="#100" d="m59 21 1.59.531c3.11.605 5.823.284 8.972-.031 6.108-.61 6.108-.61 9.438.5 1.175 3.525 1.13 6.328 1.133 10.047l.003 2.089q0 2.189-.006 4.378-.005 3.321.007 6.642 0 2.133-.004 4.266l-.004 3.893c-.331 9.436-.331 9.436-2.668 13.094-3.514 2.272-6.793 2.127-10.84 2.052l-2.45-.003q-2.557-.01-5.116-.046a552 552 0 0 0-7.834-.04q-2.488-.015-4.975-.036l-2.367-.007c-3.81-.067-5.636-.167-8.879-2.329-2.305-4.973-2.214-9.643-2-15 3.706 3.219 4 6.308 5 11l10 2-2-4c-.304-4.256-.335-7.352 2-11h1l.148 2.52.227 3.292c.07 1.08.14 2.158.21 3.27.227 3.104.227 3.104 2.415 5.918 3.084.25 3.084.25 6 0l-.07-1.828-.055-2.422-.07-2.39c.212-2.567.908-4.152 2.195-6.36h1l.367 2.371.508 3.066.492 3.06L63 62c2.77 1.385 4.12.646 7.063-.187l2.722-.731c2.34-.85 2.34-.85 3.02-2.867.22-2.504.29-4.951.257-7.465L76 46l-13-2v-3l14-1 1-7-3.21.254-4.165.309-2.117.17c-5.281.38-5.281.38-7.508-.733v-2l3.563.063c3.911.006 7.582-.42 11.437-1.063l1-6-3.176.254-4.136.308-2.092.17c-3.221.234-5.5.3-8.596-.732z"/><path fill="#100" d="M55 29c1 1 1 1 1.098 4.816a763 763 0 0 1-.035 4.746l-.014 2.444Q56.029 44.003 56 47c-4.523 2.029-7.108 1.874-12 1a97 97 0 0 0-5 0c-2.508-4.703-2.627-9.788-2-15 2.469-2.469 3.909-2.545 7.313-3.125l2.863-.508c2.66-.346 5.146-.51 7.824-.367"/><path fill="#FFF" d="M53 35c.195 2.164.195 2.164.125 4.625l-.055 2.477L53 44c-2.728 1.364-4.61.878-7.625.563l-3.04-.31L40 44q-.04-2.22-.062-4.437l-.036-2.497C40 35 40 35 41 34a79 79 0 0 1 4.938-.687l2.714-.325C51 33 51 33 53 35"/><path fill="#100" d="M17 26v6l3 2c-.37 2.676-.849 3.843-2.75 5.813-2.85 1.504-4.23 1.11-7.25.187-.2-3.716-.152-4.772 2-8h2l.375-1.875C15 28 15 28 17 26"/><path fill="#FFF" d="m13 33 5 2-1 3-5 1z"/><path fill="#100" d="m48 22 4 2v3l-4 1a88 88 0 0 1-1-5zM40 23l4 1v3l-5-1z"/></svg>