<svg xmlns="http://www.w3.org/2000/svg" width="93" height="90"><path fill="#FFF" d="M0 0h93v90H0z"/><path d="m62 20 2.148.531c3.023.497 5.445.337 8.477-.031 3.382-.408 5.103-.59 8.375.5 2.659 10.516 2.18 20.822 1.625 31.563l-.093 2.057c-.216 3.57-.618 6.323-2.532 9.38h-2v2c-7.075.93-13.994 1.152-21.125 1.125l-3.168.012C48.364 67.13 43.263 66.939 38 66c-2.106-5.528-3.379-10.07-3-16h2l.559 2.336C38.466 55.475 39.366 58.165 41 61c2.964 1.536 5.685 1.908 9 2l-.508-1.793C47.47 53.359 47.47 53.359 50 49h1l.148 2.047.227 2.703c.07.882.14 1.763.21 2.672.427 2.651.86 4.386 2.415 6.578 2.678.839 5.174.818 8 1l-1-3a81 81 0 0 1-.062-4.687l.027-2.45L61 52l3-1 1 12 13-4 1-15-13-1-1-3 13-1 2-7-2.992.254-3.883.309-3.867.316C66 33 66 33 64 32l1-3 1 1c2.19-.09 4.378-.247 6.563-.437l3.628-.31L79 29l1-6H62z"/><path d="M58 30c1.346 2.691 1.206 4.872 1.25 7.875l.078 3.18C58.956 44.397 58.447 45.713 56 48c-3.692 1.235-6.98.978-10.812.563l-2.958-.31L40 48c-.222-2.27-.427-4.54-.625-6.812l-.352-3.833C39 34 39 34 41 31c5.485-1.547 11.346-1.09 17-1"/><path fill="#FFF" d="M55 33q.039 2.438.063 4.875l.035 2.742C55 43 55 43 54 45l-13-1V34l6.438-.5 3.62-.281C54 33 54 33 55 33"/><path d="M9 19h12c1.184 3.552.487 4.785-1.031 8.082-1.54 3.047-3.23 5.98-4.969 8.918l-3-1 6-13h-8zM54 22c2.063.438 2.063.438 4 1l-1 4h-3c-.562-1.937-.562-1.937-1-4zM40 22h3l1 4-5 1zM47 22l4 1-1 4-4-1z"/></svg>