<svg xmlns="http://www.w3.org/2000/svg" width="59" height="59"><defs><mask id="cutout-mask"><rect width="59" height="59" fill="white"/><path d="M13 20h13c.293 6.836.293 6.836 0 9-4.496 2.997-7.72 1.686-13 1z" fill="black"/></mask></defs><path fill="#100" d="M32 6q4.407-.08 8.813-.125l2.525-.05 2.432-.02 2.237-.032C50 6 50 6 53 8c.907 2.72 1.128 4.31 1.133 7.105l.006 2.46-.014 2.622-.01 2.692C53.932 46.584 53.932 46.584 51 52c-3.784 1.261-7.339 1.162-11.281 1.168l-2.454.01q-2.568.007-5.135.007c-2.62.002-5.24.02-7.86.04q-2.495.005-4.989.005l-2.377.022C13.068 53.236 11.268 53.18 8 51c-1.963-5.165-2.19-9.57-2-15l3 1 2 10 10 2-1-2.125c-1.116-3.209-1.287-5.5-1-8.875l2-4H11c-1.129-5.361-1.097-10.553-1-16 6.618-2.463 13.004-2.19 20-2q.079 3.375.125 6.75l.07 3.797C29.912 31.549 29.912 31.549 28 34l-5 2 1 13h9l-1-2a95 95 0 0 1-.062-5.125l.027-2.758L32 37l3-1 1 12q2.97-.713 5.938-1.437l3.34-.81C47.893 45.27 47.893 45.27 49 44c.073-2.186.084-4.375.063-6.562l-.028-3.63L49 31c-2.569-1.284-4.766-1.33-7.625-1.562l-3.04-.254L36 29v-3l14-2 1-6-3 .5c-10.116 1.442-10.116 1.442-14-.5v-3l3.5.563c4.364.56 8.167.133 12.5-.563V9l-3 1c-1.997.12-4 .175-6 .188l-3.187.042C35 10 35 10 32 8z" mask="url(#cutout-mask)"/><path fill="#100" d="M30 16q.079 3.375.125 6.75l.07 3.797c-.18 3.202-.29 4.913-2.195 7.453-3.625 1.25-3.625 1.25-7 2v-2H11c-1.129-5.361-1.097-10.553-1-16 6.618-2.463 13.004-2.19 20-2" mask="url(#cutout-mask)"/><path fill="#100" d="m26 7 3 1v5l-5-1V8zM19 7l3 1v5l-5-1V8zM11 8l4 1-1 4-5-1z"/></svg>