<svg xmlns="http://www.w3.org/2000/svg" width="59" height="59"><defs><mask id="cutout-mask"><rect width="59" height="59" fill="white"/><path d="M12 21c4.833-.083 9.237.047 14 1v6l-14 1zM12 11l15 1v6H12z" fill="black"/></mask></defs><path fill="#100000" d="M33 7c2.751-.108 5.498-.187 8.25-.25l2.355-.102 2.286-.039 2.094-.063C51.052 7.237 52.157 8.48 54 11c.47 3.265.47 3.265.426 7.11l-.01 2.077c-.016 2.188-.06 4.375-.103 6.563q-.018 2.183-.03 4.367c-.172 18.162-.172 18.162-2.533 21.82-4.354 2.644-9.433 2.148-14.352 1.977l-2.176-.064q-2.266-.069-4.534-.147c-2.312-.078-4.625-.145-6.938-.21l-4.414-.141-2.093-.06C14.252 54.183 11.86 53.952 9 53c-2.343-5.077-2.587-10.496-3-16 1.922.719 1.922.719 4 2 .766 2.094.766 2.094 1.25 4.5.605 2.43.605 2.43 1.75 4.5 2.756 1.452 4.845 1.638 8 2l-1-3c-.203-2.156-.203-2.156-.25-4.5l-.078-2.344C20.074 37.512 20.969 36.668 23 35l.148 2.266.227 2.984c.07.975.14 1.95.21 2.953.4 2.693 1.05 4.467 2.415 6.797h7l-1-3c-.23-6.541-.23-6.541 1-9h2l2 10 4.25-.437 2.39-.247c2.656-.311 2.656-.311 6.36-1.316V33c-3.625-1.812-5.373-2.319-9.25-2.625l-2.703-.227L36 30v-3l15-1v-7l-2.484.508-3.266.617-3.234.633C38.863 21.01 37.6 20.704 35 19v-2l3.563.063c3.911.006 7.582-.42 11.437-1.063v-5H34z" mask="url(#cutout-mask)"/><path fill="#100000" d="M30 8c.87 2.958 1.077 5.439.914 8.512l-.133 2.545-.156 2.63-.133 2.667C30.13 30.87 30.13 30.87 29 32a130 130 0 0 1-6.687.188l-3.7.042C15.056 32.004 12.308 31.285 9 30c-.138-7.066.252-13.974 1-21 6.722-2.658 12.922-1.788 20-1" mask="url(#cutout-mask)"/></svg>