<svg xmlns="http://www.w3.org/2000/svg" width="101" height="90"><path fill="#FFF" d="M0 0h101v90H0z"/><path fill="#100" d="M76 30c2.208 4.415 1.186 10.419 1.185 15.328.002 2.202.02 4.402.04 6.604.03 7.22.04 14.136-2.225 21.068-3.809 2.539-6.871 2.27-11.281 2.23h-2.454q-2.568-.006-5.135-.024c-2.62-.018-5.24-.02-7.86-.02l-4.989-.018-2.377-.003C37.68 75.136 35.08 75.027 32 74c-2.343-5.077-2.587-10.496-3-16l3 1c.887 2.215.887 2.215 1.688 4.938 1.3 3.808 1.3 3.808 4.347 6.167 2.45.626 2.45.626 5.965.895l-.484-1.746C42.702 65.696 42.768 62.658 43 59c1.516-1.746 1.516-1.746 3-3l.148 2.52.227 3.292c.07 1.08.14 2.158.21 3.27.227 3.104.227 3.104 2.415 5.918 3.568.736 3.568.736 7 1l-.254-2.082-.309-2.73-.316-2.708C55 62 55 62 56 59h2l1 11c6.911-.26 6.911-.26 13-3 .927-3.33.927-3.33 1.25-7.125L74 53l-15-2v-2c9.41-2.296 9.41-2.296 14-2l1-6c-.736.095-1.472.19-2.23.29-.976.11-1.952.22-2.957.335l-2.918.352c-3.136.025-5.09-.633-7.895-1.977v-2h16l-1-6H57l-1-3q3.592-.333 7.188-.625l2.04-.195c4.12-.322 7.125-.199 10.772 1.82"/><path fill="#100" d="m39.133 28.902 4.992.035 2.574.014q3.15.02 6.301.049c.881 2.978 1.067 5.453.879 8.547l-.147 2.558-.17 2.645-.158 2.691Q53.21 48.721 53 52c-2.654 1.327-4.723 1.169-7.687 1.188l-3.075.042C39 53 39 53 32 51l1-21c2.297-1.148 3.583-1.116 6.133-1.098"/><path fill="#FFF" d="M35 42c4.833-.083 9.237.047 14 1v6l-14 1zM35 32l15 1v6H35z"/><path fill="#100" d="M9 40h7l-1 6h-2l.625 3.375L14 53c-2 2-2 2-5.125 2.125L6 55c-.687-1.687-.687-1.687-1-4 1.437-2.75 1.437-2.75 3-5l-3-1v-2l1.75 1.063c2.185 1.124 2.185 1.124 4.438.687 2.01-.6 2.01-.6 2.812-2.75H8z"/><path fill="#FFF" d="M9 50h2v3l-3 1c0-3 0-3 1-4"/></svg>