<svg xmlns="http://www.w3.org/2000/svg" width="102" height="91"><path fill="#FFF" d="M0 0h102v91H0z"/><path fill="#120000" d="m50 20 2.25.563c4.491.523 8.569.041 13.043-.504C68 20 68 20 71 22c2.119 7.619.986 16.513.688 24.313l-.108 3.783-.13 3.642c-.039 1.083-.076 2.167-.115 3.283-.346 3.075-.85 5.264-2.335 7.979-3.466 2.763-7.712 2.272-11.941 2.23h-2.316q-2.416-.006-4.834-.024a986 986 0 0 0-7.4-.02l-4.7-.018-2.235-.003c-3.124-.03-5.588-.17-8.574-1.165-3.046-5.415-3.376-9.865-3-16l3 1c.633 1.96.633 1.96 1.125 4.375.89 3.062 1.263 4.273 4.066 5.887 2.264.726 4.472 1.312 6.809 1.738l-1-2.125c-1.124-3.231-1.362-5.476-1-8.875l3-4 2 15h9l-1-2a95 95 0 0 1-.062-5.125l.027-2.758L50 51h3l1 11 14-3V44l-13-1-1-3 14-2 1-6-2.957.254-3.856.309-3.832.316C55 33 55 33 52 32l1-3 3 .563c4.17.614 7.85.092 12-.563v-6l-2.922.29c-1.263.11-2.526.22-3.828.335l-3.797.352C54.164 23.999 52.69 23.78 50 22z"/><path fill="#120000" d="m40.875 18.875 3.492.055L47 19c2.532 7.39 3.807 14.284 2 22-2 2-2 2-5.555 2.23q-2.16-.006-4.32-.042l-2.184-.002C33.498 43.157 30.29 43.076 27 42c-1.395-6.976-1.262-14.213 1-21 4.353-1.95 8.147-2.221 12.875-2.125"/><path fill="#FFF" d="m46 23-1 6-15 1v-7c5.577-1.068 10.394-.826 16 0M30 33h15v6l-15 1z"/><path fill="#120000" d="m9 34 5 1c1.08 3.972.858 6.426-.437 10.313l-.872 2.675L12 50h-1v-6l-4-1c-.687-2.25-.687-2.25-1-5 1.438-2.312 1.438-2.312 3-4M59 49c2.063.438 2.063.438 4 1v5l-3 1-2-1a100 100 0 0 1 0-5z"/><path fill="#FFF" d="M9 36h3v5l-4 1z"/></svg>