<svg xmlns="http://www.w3.org/2000/svg" width="59" height="59"><defs><mask id="cutout-mask"><rect width="59" height="59" fill="white"/><path d="M12 10h15c1 2 1 2 0 6l-15 1zM12 20h15v6H12z" fill="black"/></mask></defs><path fill="#100" d="M32 7q4.407-.08 8.813-.125l2.525-.05 2.432-.02 2.237-.032C50 7 50 7 53 9c1.242 3.726 1.15 7.183 1.125 11.063l-.012 2.39a530 530 0 0 1-.425 17.36l-.068 2.26C53.398 46.453 53.03 49.72 50 53c-6.802 1.33-13.653 1.186-20.553 1.185-2.14.003-4.278.02-6.418.04q-2.051.005-4.103.005l-3.737.013C12.149 54.01 10.459 53.76 8 52c-2.179-5.338-2.233-10.291-2-16 3.45 2.3 3.34 2.642 4.125 6.438.895 3.042 1.278 4.22 4.066 5.82 2.264.73 4.47 1.315 6.809 1.742l-1.062-1.937C18.65 43.857 19.309 40.285 20 36h3l.184 2.336.253 3.039.247 3.023C23.85 46.98 23.85 46.98 25 49h7l-.625-3.187C31 42.003 31.284 40.332 33 37l2 1c.414 2.504.414 2.504.625 5.563l.227 3.066L36 49q2.127-.428 4.25-.875l2.39-.492C46.05 46.79 46.05 46.79 49 45c.708-3.34.708-3.34.75-7.125L50 31l-14-1v-3l14-2 1-6-3 .5c-10.116 1.442-10.116 1.442-14-.5v-3l3.5.563c4.364.56 8.167.133 12.5-.563v-6c-1.048.095-2.096.19-3.176.29l-4.136.335-2.092.195c-3.852.298-5.285.388-8.596-1.82z" mask="url(#cutout-mask)"/><path fill="#100" d="M30 7c1.43 7.642 2.304 14.304 1 22-4.256 2.112-7.43 2.101-12.125 1.688l-3.695-.301C12 30 12 30 9 29c-.967-5.202-.89-9.696-.062-14.937l.302-2.073c.245-1.664.501-3.327.76-4.99 13.633-2.665 13.633-2.665 20 0" mask="url(#cutout-mask)"/><path fill="#100" d="M41 36c2.063.188 2.063.188 4 1l1 3-2 3-4-1c-.625-1.875-.625-1.875-1-4z"/></svg>