<svg xmlns="http://www.w3.org/2000/svg" width="91" height="91"><path fill="#FFF" d="M0 0h91v91H0z"/><path fill="#130101" d="M67 24c2.999.892 4.672 1.59 6.65 4.06 1.747 3.804 1.726 7.205 1.643 11.303l-.013 2.4a883 883 0 0 1-.093 7.55q-.022 2.567-.04 5.134A1825 1825 0 0 1 75 67c-2.468-1.152-4.048-2.048-6-4-5.1-.742-10.742-1.37-15.273 1.379-1.799 1.631-1.799 1.631-3.262 3.406L49 69c-2.184-.316-2.184-.316-4-1 1.335-3.163 2.464-5.529 5.063-7.812C56.884 57.43 63.866 57.81 71 59v-7q-3.594.213-7.187.438l-2.042.119c-2.915.185-5.712.43-8.572 1.04-3.087.565-5.256-.616-8.199-1.597-.875-1.75-.875-1.75-1-4 1.438-2.75 1.438-2.75 3-5l2.75 1.938C54.799 47.883 60.283 47.812 66 48l-2.5-2.75C60.967 42.464 61 42.127 61 38c3.297 1.099 4.047 1.946 6.188 4.563l1.605 1.94L70 46c1.225-5.666 1.092-11.237 1-17l-4-2z"/><path fill="#120000" d="m44.184 24.707 2.119.03c.704.024 1.409.05 2.135.076l2.216.04c1.783.035 3.564.09 5.346.147l1 9-19-1c-.661 4.63-1.122 8.477-1.098 13.047l.01 3.308.026 3.395.013 3.441q.014 3.142.033 6.285.017 2.762.016 5.524c-1.976-1.483-1.976-1.483-4-4a54 54 0 0 1-.39-8.266c.005-.793.01-1.586.017-2.404.022-2.527.072-5.053.123-7.58q.03-2.574.055-5.148C32.849 36.4 32.918 32.2 33 28c7.402-3.387 7.402-3.387 11.184-3.293"/><path fill="#120000" d="M40 26v2h-2v3l3 1-3 1c-1.208 6.582-1.112 13.074-1.062 19.75l.013 3.441q.014 3.142.033 6.285.017 2.762.016 5.524c-1.969-1.488-1.969-1.488-4-4a53 53 0 0 1-.496-8.195l-.005-2.39q.004-2.494.034-4.988c.03-2.55.021-5.099.008-7.65q.01-2.424.025-4.847l-.008-2.317c.038-2.145.038-2.145.442-5.613 3-2 3-2 7-2M19 39l-1 8-8 1c-.687-1.687-.687-1.687-1-4 2.663-5.452 4.172-6.38 10-5"/><path fill="#FFF" d="m47.125 26.938 3.883.027L54 27v4H38v-3c3.003-1.502 5.79-1.093 9.125-1.062"/><path fill="#120000" d="M17 42h1v5l-8 1-1-3 2-1v2c3.182-1.755 3.182-1.755 6-4"/><path fill="#FFF" d="M15 39h2c-.75 4.75-.75 4.75-3 7h-3l2-5h2z"/><path fill="#120000" d="m55 66 8 1v3l-8-1z"/></svg>