<svg xmlns="http://www.w3.org/2000/svg" width="59" height="59"><defs><mask id="cutout-mask"><rect width="59" height="59" fill="white"/><path d="m23.125 8.938 3.883.027L30 9v4H14v-3c3.003-1.502 5.79-1.093 9.125-1.062" fill="black"/></mask></defs><path fill="#100" d="M42 6c3.665.495 5.708 1.02 8 4 1.253 3.758 1.124 7.255 1.098 11.168l-.005 2.408c-.005 2.538-.018 5.074-.03 7.611q-.008 2.582-.014 5.163Q51.032 42.674 51 49c-2.468-1.152-4.048-2.048-6-4-5.095-.741-10.72-1.348-15.273 1.344-1.796 1.603-1.796 1.603-3.262 3.343C25 51 25 51 21 51c1.889-6.537 1.889-6.537 5-9 6.992-2.28 13.82-2.153 21-1v-7q-3.626.212-7.25.438l-2.066.119c-2.704.17-5.3.347-7.934 1.005-2.964.742-5.784-.049-8.75-.562l2-4-3 2 1-4h2l-1-4c4 2 4 2 5.781 3.031 2.704 1.18 5.032 1.384 7.969 1.594l2.984.227L41 30l-2-3.312c-1.585-2.625-2-3.514-2-6.688l3 1 .938 2.5L42 26c2.041.887 2.041.887 4 1 .853-3.674 1.108-7.045 1.063-10.812l-.028-2.958L47 11l-1.937-.812C43 9 43 9 42 6" mask="url(#cutout-mask)"/><path fill="#100" d="m20.184 6.707 2.119.03 2.134.075 2.217.042c1.783.034 3.564.088 5.346.146l1 9q-3.626-.213-7.25-.437l-2.066-.12c-3.347-.21-6.452-.566-9.684-1.443-.954 7.163-1.12 14.155-1.062 21.375l.013 3.27q.014 2.977.033 5.954.017 2.7.016 5.401c-1.976-.976-1.976-.976-4-3a54.7 54.7 0 0 1-.39-8.387c.005-.817.01-1.634.017-2.476.022-2.608.072-5.216.123-7.824q.03-2.654.055-5.307C8.849 18.67 8.918 14.336 9 10c7.402-3.387 7.402-3.387 11.184-3.293" mask="url(#cutout-mask)"/><path fill="#100" d="M17 7h15l1 9a889 889 0 0 1-7.25-.375c-.682-.03-1.364-.062-2.066-.094C20.013 15.317 17.137 14.99 14 13v-3h2z" mask="url(#cutout-mask)"/><path fill="#100" d="m31 48 8 1v3l-8-1z"/></svg>