<svg xmlns="http://www.w3.org/2000/svg" width="102" height="91"><path fill="#FFF" d="M0 0h102v91H0z"/><path fill="#120000" d="M79.938 21.438C82 23 82 23 83 24c.375 2.75.375 2.75 0 6-2.713 3.213-4.894 5.735-9.172 6.273-4.381.173-7.833.304-11.453-2.398C60 31 60 31 59.438 27.875 60 25 60 25 61.125 23.25c5.627-3.752 12.674-4.817 18.813-1.812"/><path fill="#FFF" d="m77 23 3 2c-.317 2.932-.632 4.59-2.625 6.813C74.016 33.492 71.71 33.456 68 33c-2.937-1.812-2.937-1.812-5-4v-3c5.016-3.01 8.302-3.467 14-3"/><path fill="#120000" d="M43 22h3a2575.199 2575.199 0 0 0-.11 14.832q-.015 2.516-.04 5.033C45.757 50.836 45.735 59.248 48 68c-1.937-.312-1.937-.312-4-1-.919-2.756-1.122-4.36-1.114-7.196v-2.547l.016-2.737.005-2.813c.005-2.965.018-5.93.03-8.894q.008-3.015.014-6.03Q42.968 29.391 43 22M51 35h2l.304 1.8c.469 2.736.957 5.468 1.446 8.2l.477 2.832C56.33 53.904 58.11 58.562 61 64v3c-3.335-1.112-4.637-2.474-7-5l-1 5-2-1 .254-2.21c.946-9.7.453-19.092-.254-28.79M9 34h2v6l5-1c1.125 1.688 1.125 1.688 2 4-.996 3.801-1.658 4.772-5 7-3.187.125-3.187.125-6 0-1.27-3.81-.52-5.816.438-9.687l.87-3.575zM62 38l4 1c1.225 5.666 1.092 11.237 1 17h-3zM77 37h2v19h-3q-.04-4.47-.062-8.937l-.026-2.577-.01-2.45-.016-2.27C76 38 76 38 77 37M20 39c2.248 2.052 3.002 3.007 4 6l3-6c.75 1.563.75 1.563 1 4-1.13 2.503-2.521 4.67-4 7h-2c-1.423-3.823-2.24-6.913-2-11"/><path fill="#FFF" d="M13 42h2l-1 5-4 1c.573-2.867.861-3.861 3-6"/><path fill="#120000" d="m51 23 4 2v3l-4 1zM75 60l4 1-1 4-4-2zM64 61h4l-1 4h-3z"/></svg>