<svg xmlns="http://www.w3.org/2000/svg" width="59" height="59"><defs><mask id="cutout-mask"><rect width="59" height="59" fill="white"/><path d="m46 9 3 2c-.317 2.932-.632 4.59-2.625 6.813C43.016 19.492 40.71 19.456 37 19c-2.937-1.812-2.937-1.812-5-4v-3c4.918-2.409 8.399-3.539 14-3" fill="black"/></mask></defs><path fill="#120000" d="M51 8c1.444 2.889 1.377 4.796 1 8-2.713 3.213-4.894 5.735-9.172 6.273-4.381.173-7.833.304-11.453-2.398C29 17 29 17 28.438 13.875 29 11 29 11 30.125 9.25 36.289 5.14 44.421 4.412 51 8M12 8h3l-.016 2.978q-.026 5.528-.039 11.054-.008 2.382-.02 4.763C14.495 40.58 14.495 40.58 17 54c-1.937-.312-1.937-.312-4-1-.919-2.756-1.122-4.36-1.114-7.196v-2.547l.016-2.737.005-2.813c.005-2.965.018-5.93.03-8.894q.009-3.015.014-6.03Q11.968 15.391 12 8" mask="url(#cutout-mask)"/><path fill="#120000" d="M20 21h3l.212 1.8c.33 2.736.684 5.468 1.038 8.2l.332 2.832c.725 5.46 1.803 9.7 4.702 14.414.924 2.264.5 3.487-.284 5.754l-6-6-1 5-2-1 .254-2.21c.946-9.7.453-19.092-.254-28.79M31 24c1.938.375 1.938.375 4 1 1.594 3.188 1.102 6.629 1.063 10.125l-.014 2.285Q36.029 40.205 36 43l-2 1c-1.916-6.642-2.564-13.11-3-20M45 23l4 1-1 18h-3zM20 9l4 2-1 4h-3zM44 46l4 1v4l-4-1zM33 47h4v4h-4z"/></svg>