<svg xmlns="http://www.w3.org/2000/svg" width="112" height="90"><path fill="#FFF" d="M0 0h112v90H0z"/><path fill="#100" d="M75.438 22.688c3.05.371 3.546 1.12 5.562 3.312 2.103.714 2.103.714 4 1v-2l5 1c1.206 3.79 1.179 7.567 1.203 11.504l.017 2.18q.015 2.277.02 4.552c.01 2.322.041 4.643.073 6.965l.015 4.428.038 2.102c-.014 2.876-.048 4.81-1.71 7.214-2.539 1.618-4.691 1.304-7.656 1.18-4.579-.174-4.579-.174-9 .875.506-2.169 1-4 2-6l11 1 1-8c-1.578.03-1.578.03-3.187.063-3.155-.052-5.8-.177-8.813-1.063-1.19-2.38-1.133-3.915-1.125-6.562l-.008-2.442C74 42 74 42 75 41c3.983-.15 7.11.028 11 1l1-12-2.992-.078-3.883-.172-3.867-.14C73 29 73 29 71.555 26.952L71 25c2-2 2-2 4.438-2.312M63 46c3.97 3.177 6.056 5.966 7 11-.707 3.04-1.55 4.55-3.75 6.75-5.081 2.823-9.79 2.432-15.254 1.031C49 64 49 64 46.875 61.875c-1.169-3.84-1.136-7.1.125-10.875 5.044-6.27 8.372-8.078 16-5"/><path fill="#FFF" d="M62 49c2.438 1.688 2.438 1.688 4 4 .5 3.063.5 3.063 0 6-1.437 1.875-1.437 1.875-4 3-4.882.564-8.673.468-13-2-.357-3.835-.298-5.553 1.875-8.812C54.615 47.337 56.855 47.847 62 49"/><path fill="#100" d="m56 21.75 2.195-.062c5.34-.04 5.34-.04 7.805 1.828L67 25c-1 1-1 1-3.562 1.063L61 26l.07 1.898.055 2.477.07 2.46C61 35 61 35 59 37c-1-1-1-1-1.098-2.848L58 28l-5-1-.148 2.152-.227 2.785c-.07.917-.14 1.834-.21 2.778-.138.754-.274 1.508-.415 2.285l-2 1c-1.322-2.645-1.097-4.678-1.062-7.625l.027-3.04L49 25h-4v-2c3.695-1.232 7.151-1.223 11-1.25M23 38l2 1c-.42 5.605-.916 10.72-3 16h-8c.75-7.75.75-7.75 3-10 2.625-.125 2.625-.125 5 0z"/><path fill="#FFF" d="M80 45h4l1 6h-8l1-4h2zM18 47h3c-.25 2.375-.25 2.375-1 5-2.062 1.313-2.062 1.313-4 2l-1-2c1.25-2.625 1.25-2.625 3-5"/><path fill="#100" d="M57 53h3v4l-3-1z"/></svg>