<svg xmlns="http://www.w3.org/2000/svg" width="59" height="59"><defs><mask id="cutout-mask"><rect width="59" height="59" fill="white"/><path d="M22 34v2l4 2c.478 5.377.478 5.377-1.437 7.875C20.773 47.538 17.078 47.553 13 47c-2.281-1.02-2.281-1.02-4-2-.357-3.835-.298-5.553 1.875-8.812C14.657 32.294 16.815 33.136 22 34" fill="black"/><path d="m40 30 4 1 1 5h-7l-1-4h2z" fill="black"/></mask></defs><path fill="#100" d="M35.438 7.688C38 8 38 8 39.312 9.563c1.567 1.653 1.567 1.653 3.649 1.414 2.022-.263 4.032-.615 6.039-.977 2.478 3.784 2.29 7.615 2.266 11.977l.007 14.601q0 2.355-.007 4.711l.012 2.25C51.23 48.77 51.23 48.77 49 51c-2.734.306-5.383.511-8.125.625l-2.285.117c-1.863.095-3.726.177-5.59.258.506-2.169 1-4 2-6l12 1v-8l-1.828.07-2.422.055-2.39.07c-2.567-.212-4.152-.908-6.36-2.195a758 758 0 0 1-.062-4.937l-.036-2.778C34 27 34 27 35 26c3.983-.15 7.11.028 11 1l1-12-15-1-1-4c2-2 2-2 4.438-2.312M17.938 29.25c2.657.65 4.707 1.391 7.062 2.75v2h2c2.457 3.003 3 4.65 3 8.563-1.223 4.203-2.188 5.328-6 7.437-6.033 1.483-10.55 1.121-16-2-2.44-2.635-1.995-4.289-1.937-7.937C6.729 35.75 8.602 33.75 12 31c3-2 3-2 5.938-1.75" mask="url(#cutout-mask)"/><path fill="#100" d="m16 6.75 2.195-.062c5.34-.04 5.34-.04 7.805 1.828L27 10l-1 1h-5v11l-3-1v-9h-5l-.148 2.152-.227 2.786c-.07.916-.14 1.833-.21 2.777-.138.754-.274 1.508-.415 2.285l-2 1c-1.322-2.645-1.097-4.678-1.062-7.625l.027-3.04L9 10H5V8c3.695-1.232 7.151-1.223 11-1.25"/><path fill="#100" d="m17 38 3 1v3h-3z"/></svg>