<svg xmlns="http://www.w3.org/2000/svg" width="100" height="90"><path fill="#FFF" d="M0 0h100v90H0z"/><path fill="#120000" d="M50 24q4.407-.04 8.813-.062l2.525-.026 2.432-.01 2.237-.016C68 24 68 24 71 25c1.253 3.758 1.124 7.255 1.098 11.168l-.005 2.408c-.005 2.538-.018 5.074-.03 7.611q-.008 2.582-.014 5.163Q72.032 57.674 72 64l-2 1-1-13-5 1-.367 2.152-.508 2.785-.492 2.778L62 63l-2 1q-.04-2.937-.062-5.875l-.036-3.305C60 52 60 52 61 50h2l-1-3-12-1v2l-3-1 1-6 21-1 1-6-19-1c-2.25-5.625-2.25-5.625-1-9"/><path fill="#120000" d="M42 23h2c1.37 4.11 1.063 7.67 1 12H35l1 20c5.368 2.147 7.308 1.921 12.695.996C51 56 51 56 52.805 57.348 54 59 54 59 54 61l-3-.5c-7.846-1.174-7.846-1.174-15 1.5-.724 2.06-.724 2.06-1 4l-3-1c-4.004-8.009-.65-23.075 0-32l3.375-.437c3.446-.347 3.446-.347 5.625-1.563.465-1.895.465-1.895.625-4.062zM13.188 40.375 15 41l-1 5H8v3h5l-4 2-3-3c2.387-8.448 2.387-8.448 7.188-7.625"/><path fill="#FFF" d="M65.563 26.938 69 27v4c-2.875.188-2.875.188-6 0l-2-3c1-1 1-1 4.563-1.062M52 27h7v4h-6z"/><path fill="#120000" d="m9 42 1 3 2 1H8v3h5l-4 2-3-3c1.875-4.875 1.875-4.875 3-6M40 47l4 1v5l-4-2z"/><path fill="#FFF" d="M10 42h4l-1 3h-3z"/></svg>