<svg xmlns="http://www.w3.org/2000/svg" width="59" height="59"><defs><mask id="cutout-mask"><rect width="59" height="59" fill="white"/><path d="M41 11h7l-1 5-6-2zM31 11h7v4h-6z" fill="black"/></mask></defs><path fill="#120000" d="M29 8q4.406-.04 8.813-.062l2.525-.026 2.432-.01 2.237-.016C47 8 47 8 50 9c1.243 3.73 1.162 7.212 1.168 11.098l.01 2.394q.007 2.502.007 5.005c.002 2.56.02 5.118.04 7.677q.005 2.43.005 4.861l.022 2.327C51.23 47.772 51.23 47.772 49 50l-1-14-5 1-.367 2.152-.508 2.785-.492 2.778L41 47l-2 1q-.04-2.937-.062-5.875l-.036-3.305C39 36 39 36 40 34h2v-4H29v2l-3-1 1-6h22v-7l-3.832-.113q-2.49-.098-4.98-.2l-2.526-.068-2.432-.107-2.237-.08C30.464 16.884 29.516 16.078 28 14c.313-3.188.313-3.188 1-6" mask="url(#cutout-mask)"/><path fill="#120000" d="M21 7h2c1.37 4.11 1.063 7.67 1 12H14q.21 4.969.438 9.938l.119 2.865.127 2.724.11 2.524c0 1.952 0 1.952 1.206 2.949 3.564-.01 7.118-.133 10.68-.258C30 40 30 40 31.945 41.508L33 43l-1 3-2-2c-2.986-.435-2.986-.435-6.375-.437l-3.46-.122c-3.365.26-3.365.26-5.454 3.086L13 49h-2c-4.004-8.009-.65-23.075 0-32 6.625-1.125 6.625-1.125 10 0l-.562-3.312C20 10 20 10 21 7" mask="url(#cutout-mask)"/><path fill="#120000" d="m18 31 5 1v5h-3c-2-3-2-3-2-6"/></svg>