<svg xmlns="http://www.w3.org/2000/svg" width="59" height="59"><defs><mask id="cutout-mask"><rect width="59" height="59" fill="white"/><path d="M43 11v4c-3.375.188-3.375.188-7 0l-2-3c3.073-.91 5.801-1.089 9-1" fill="black"/></mask></defs><path fill="#100000" d="m24 6 1 6-3-1V9l-9 1v5l2.957.375c10.14 1.644 10.14 1.644 12.606 4.324.804 2.132 1.183 4.04 1.437 6.301l.688 3.688C32.173 45.238 32.173 45.238 29 50c-5.25 2.007-12.807 2.013-18.117.328C9.25 49.5 9.25 49.5 7 48a196 196 0 0 1-.187-4.375l-.106-2.46L7 39l3-2 1 9h17a615 615 0 0 0-.687-9.687l-.163-2.764c-.378-4.52-.694-6.945-3.482-10.643-2.496-1.783-3.674-2.556-6.668-2.718l-2.062-.141c-3.47-.088-3.47-.088-6.938-.047-1.185-3.554-1.266-6.27-1-10 1.578-2.63 2.718-2.928 5.688-3.687C16.494 5.953 20.178 5.934 24 6M36.688 7.813C45.67 7.95 45.67 7.95 49 10c6.506 10.626 3.064 27.374 1 39h-2c-1.496-4.49-.547-8.316 0-13l-10-1-1-3q2.438-.04 4.875-.062l2.742-.036C47 32 47 32 49 33c-.715-3.224-.715-3.224-3.687-4.625C42.143 27.06 39.393 26.404 36 26l1-3q2.438-.04 4.875-.062l2.742-.036C47 23 47 23 49 24l-3-6-2.738.105-3.575.082-3.55.106C33 18 33 18 31.097 16.683 29.435 14.133 29.743 11.964 30 9c1.774-1.774 4.289-1.173 6.688-1.187" mask="url(#cutout-mask)"/><path fill="#100000" d="M16 33q3.51.43 7 1v5c-2.812 1.125-2.812 1.125-6 2l-3-2c.875-4.875.875-4.875 2-6M36 40q2.514.428 5 1l1 9-3 1-1-5-3 1c-.043-2-.04-4 0-6z" mask="url(#cutout-mask)"/></svg>