<svg xmlns="http://www.w3.org/2000/svg" width="121" height="91"><path fill="#FEFEFE" d="M0 0h121v91H0z"/><path fill="#120000" d="m65 23 1 6-3-1v-2l-9 1v5l2.957.375c10.14 1.644 10.14 1.644 12.606 4.324.804 2.132 1.183 4.04 1.437 6.301l.688 3.688c1.465 15.65 1.465 15.65-.954 19.136-3.499 2.373-7.035 2.335-11.171 2.364l-2.81.042c-3.2-.267-6.405-.882-8.753-3.23a75 75 0 0 1-.062-4.562l.027-2.504L48 56l3-1 1 8 3.21-.035 4.165-.028 2.117-.025c5.281-.025 5.281-.025 7.508 1.088a570 570 0 0 0-.687-10.187l-.163-2.909c-.369-4.64-.645-7.227-3.482-11.029-2.491-1.75-3.693-2.526-6.668-2.687l-2.062-.141c-3.47-.088-3.47-.088-6.938-.047-1.185-3.554-1.266-6.27-1-10 1.578-2.63 2.718-2.928 5.688-3.687 3.806-.36 7.49-.379 11.312-.313M77.688 24.813C86.67 24.95 86.67 24.95 90 27c6.501 10.836 2.907 27.152 1 39h-2V53l-10-1v-3q2.219-.04 4.438-.062l2.496-.036C88 49 88 49 89 50c-.195-1.95-.195-1.95-1-4-3.276-2.394-7.055-2.545-11-3l1-3q2.188-.04 4.375-.062l2.46-.036C87 40 87 40 89 41l-1-7-1.684.484c-2.51.559-4.809.72-7.379.766l-2.597.078C74 35 74 35 72.207 33.68 70.389 31.15 70.737 29.02 71 26c1.774-1.774 4.289-1.173 6.688-1.187"/><path fill="#120000" d="M64 51v5c-2.812 1.125-2.812 1.125-6 2l-3-2c.375-2.437.375-2.437 1-5 2.862-1.43 4.934-.6 8 0M27 33h3v2h-3l-1 6 4 1-5 1-1 6h-2l1-6-2-1 2-1a252 252 0 0 0 3-7zM77 57c3.692.692 3.692.692 5 2 .072 1.52.084 3.042.063 4.563l-.028 2.503L82 68h-2l-1-6-1 2h-2c-.043-2-.04-4 0-6z"/><path fill="#FFF" d="M85 28v4h-9l-1-3c3.38-1.04 6.478-1.08 10-1"/></svg>