<svg xmlns="http://www.w3.org/2000/svg" width="59" height="59"><defs><mask id="cutout-mask"><rect width="59" height="59" fill="white"/><path d="m35 21 4 1v3l-5-1z" fill="black"/></mask></defs><path fill="#180000" d="m43.188 8.438 2.271.158Q48.229 8.792 51 9l-.527 1.934c-.634 4.11-.314 7.991-.035 12.129.614 10.32.661 20.6.562 30.937h-2c-1.478-2.957-1.06-5.742-1-9l-11 1-1-3c2.405-1.203 3.95-1.1 6.625-1.062l2.477.027L47 42v-7l-1.64.496c-2.762.59-5.288.6-8.11.566l-2.984-.027L32 36l-1-3 16-1-.375-7.75-.103-2.42c-.136-5.323-.136-5.323-2.522-9.83-2.879-.705-2.879-.705-6.125-.75l-3.32-.172L32 11V9c3.828-1.276 7.235-.863 11.188-.562M12 8c.913 4.97.913 9.03 0 14 3.99 1.105 3.99 1.105 7.813.063C22.09 18.108 22 13.478 22 9l4 1c.292 5.647.064 9.05-3 14-2 2-2 2-10 4v21h14v2c-4.25 2.834-8.012 2.413-13 2-3.125-1-3.125-1-5-2l.563-2.625c.718-4.94.105-9.782-.301-14.73C8.743 26.422 8.42 19.11 10 12H8V9c2-1 2-1 4-1" mask="url(#cutout-mask)"/><path fill="#180000" d="M36.875 17.75c3.125.25 3.125.25 5 1.438C43.383 21.618 43.36 23.19 43 26c-2 2-2 2-4.875 2.375-3.75-.45-4.79-1.501-7.125-4.375 2.284-5.938 2.284-5.938 5.875-6.25M38 48l4 1 1 4-5 1c-1.125-3.75-1.125-3.75 0-6M19 31l3 1 1 6h-3l-2-6z" mask="url(#cutout-mask)"/></svg>