<svg xmlns="http://www.w3.org/2000/svg" width="113" height="90"><path fill="#FFF" d="M0 0h113v90H0z"/><path fill="#160000" d="M69 23h19v3h-2l1 2c.242 2.964.427 5.906.563 8.875l.128 2.663c.419 9.488.4 18.968.309 28.462h-2c-1.478-2.957-1.06-5.742-1-9l-11 1c0-3 0-3 1-4a75 75 0 0 1 4.563-.062l2.503.027L84 56v-6H69l-1-3 16-1-.437-7.75-.131-2.42c-.205-3.44-.593-6.473-1.432-9.83l-13-1zM49 22v14l7 1c2.44-4.88 3.468-7.527 2-13 1.938-.562 1.938-.562 4-1 1 1 1 1 1.02 3.328-.307 4.333-.627 7.852-2.52 11.797C58 40 58 40 49 41l1 22h14c-3 4-3 4-5.305 4.496C53.67 67.382 50.093 67.274 46 64l.51-2.637c.464-3.186.51-5.965.334-9.172l-.16-3.263-.368-6.719c-.273-5.574-.39-10.723.684-16.209h-2v-3c2-1 2-1 4-1"/><path fill="#160000" d="M73.938 31.625C77 32 77 32 78.938 33.688c1.322 2.877.972 4.334.062 7.312-6.625 1.25-6.625 1.25-10-1-.312-3-.312-3 0-6 2-2 2-2 4.938-2.375M20.188 39.313 22 40c.311 5.911-.035 9.812-3 15-2.062 1-2.062 1-4 1l-2-1v-2l5 1v-4l-4-1c.603-6.396.603-6.396 2.313-9C18 39 18 39 20.188 39.313"/><path fill="#FFF" d="m73 34 3 1c.688 2.063.688 2.063 1 4l-5 1c-.625-1.875-.625-1.875-1-4z"/><path fill="#160000" d="m76 62 3 1-1 5h-3c-.625-1.875-.625-1.875-1-4z"/><path fill="#FFF" d="M18 41h3c-.25 2.375-.25 2.375-1 5-2.062 1.313-2.062 1.313-4 2 .875-4.75.875-4.75 2-7"/><path fill="#160000" d="M55 46h4l1 6h-3z"/></svg>