<svg xmlns="http://www.w3.org/2000/svg" width="113" height="90"><path fill="#FFF" d="M0 0h113v90H0z"/><path fill="#120000" d="m49.5 22.75 3.906-.078c3.775.345 5.672.945 8.594 3.328.387 3.16.43 5.139-1 8-4.566.077-8.529-.059-13-1h-3.187C42 33 42 33 40 32l1 4 12 2 1 6-2-4H41c-.84 4.353-1.108 8.444-1.062 12.875l.027 3.492L40 59l6 3V52h3l-1 10h5v-9h3l-1 9 5 1v-9h2v11l-3.875-.062c-6.822 0-13.446.699-20.125 2.062-.692-14.344-1.152-28.64-1-43 4.193-1 8.195-1.198 12.5-1.25"/><path fill="#120000" d="m75 24 3 1c.707 10.12 1.14 20.23 1.25 30.375l.064 3.006.014 2.83.028 2.51C78.921 66.506 77.83 67.896 76 70l-4-1v-2l4-1 1-7h-8v-3l8-1-1-7-2.687-.375C70.296 47.055 67.797 46.234 65 45c1.125-1.562 1.125-1.562 3-3 2.998.245 5.307.653 8 2l-1-10H64l-1 3-2-1c.688-2.437.688-2.437 2-5 4.035-1.614 7.811-.74 12 0zM47 51l2 1-1 10h5v-9h3l-1 9 5 1v-9h2v11l-3.875-.062c-6.757 0-13.532.524-20.125 2.062v-8l2.313.938c1.875.74 3.774 1.424 5.687 2.062l-.035-2.152-.028-2.785-.035-2.778C46 52 46 52 47 51"/><path fill="#FFF" d="M41 26q3.938-.04 7.875-.062l2.262-.026c5.636-.025 5.636-.025 7.863 1.088l-1 5q-3.937-.211-7.875-.437l-2.262-.12c-5.636-.33-5.636-.33-7.863-1.443z"/><path fill="#120000" d="M14 46h2c-.875 7.75-.875 7.75-2 10h-2zM15 41l2 1-1 2z"/></svg>