<svg xmlns="http://www.w3.org/2000/svg" width="59" height="59"><defs><mask id="cutout-mask"><rect width="59" height="59" fill="white"/><path d="M14 9q3.688-.04 7.375-.062l2.117-.026C28.773 8.887 28.773 8.887 31 10l-1 5q-3.094-.214-6.187-.437l-3.481-.247A66 66 0 0 1 12 13z" fill="black"/></mask></defs><path fill="#100" d="m21.5 5.75 3.906-.078C29.181 6.017 31.078 6.617 34 9c.387 3.16.43 5.139-1 8-4.572.077-8.522-.081-13-1a195 195 0 0 0-7 0l-1 3 2.809.402 3.629.535 3.62.528C25 21 25 21 26 22c.04 1.666.043 3.334 0 5l-1.207-1.488c-2.305-1.944-3.513-1.829-6.48-1.7l-2.45.083L14 24c-1.95 4.077-2.216 7.317-2.125 11.813l.055 3.519L12 42l6 3V35h3l-1 10h5v-9h3l-1 9h4l1-9h2v12l-3.875-.062c-7.103.01-13.524.329-20.125 3.062-.934-9.788-1.123-19.494-1.062-29.312q.008-2.152.013-4.303Q8.968 12.193 9 7c4.222-.904 8.174-1.198 12.5-1.25" mask="url(#cutout-mask)"/><path fill="#100" d="M47 7h3a512 512 0 0 1 1.25 30.875l.064 3.15.014 2.967.028 2.636C50.928 49.478 49.878 50.86 48 53l-4-1v-2l4-1v-6c-2.49-.687-4.379-1-7-1v-3l7-1v-7l-2.687-.375C42.296 30.055 39.797 29.234 37 28c1.125-1.562 1.125-1.562 3-3 2.998.245 5.307.653 8 2l-1-10H36l-1 3-2-1 2-5h12zM19 34l2 1-1 10h5v-9h3l-1 9h4l1-9h2v12l-3.875-.062C19.76 47.92 19.76 47.92 10 51v-9l2.313.938c1.875.74 3.774 1.424 5.687 2.062l-.035-2.152-.027-2.785-.036-2.778C18 35 18 35 19 34" mask="url(#cutout-mask)"/></svg>