<svg xmlns="http://www.w3.org/2000/svg" width="59" height="59"><path fill="#100" d="m22 8 8 1c.058 3.604.094 7.208.125 10.813l.05 3.103.02 2.979.032 2.745C30 31 30 31 28 34c-3.04.293-3.04.293-6.625.188l-3.602-.083L15 34c-1.297 3.565-2.256 6.57-2.125 10.375L13 48l3.176-.07q2.069-.029 4.137-.055c.69-.017 1.38-.034 2.091-.05 3.767-.037 5.38.031 8.596 2.175v4h-3l-1-3q-3.187-.04-6.375-.062l-3.586-.036C14.081 50.785 14.081 50.785 12 52c-3.388-13.34-3.388-13.34-.5-18.875 3.554-3.02 5.862-2.978 10.5-3.125l3 1V12l-3-1zM34 10h3c.622 14.338 1.18 28.647 1 43-2.437-.375-2.437-.375-5-1-1.135-2.27-1.129-3.543-1.133-6.062l-.004-2.415.012-2.523-.012-2.523.004-2.414.004-2.215C32 32 32 32 33 30c.151-1.52.249-3.045.316-4.57l.127-2.715.12-2.84.13-2.863q.16-3.506.307-7.012M8 8l6 1-1 3c-.195 3.643-.345 7.28-.43 10.928-.084 2.031-.318 4.055-.57 6.072l-3 2zM42 10c2.875-.125 2.875-.125 6 0 2.528 2.528 2.366 3.741 2.625 7.25l.223 2.973c.16 2.931.231 5.842.152 8.777h-3l-1-16-5-1z"/><path fill="#100" d="M18 39h8l1 4c-3.85 2.567-5.586 1.833-10 1zM45 40h5c2.6 3.9 2.15 7.474 2 12l-3-1-1-7-3-1zM40 32h6l1 5-8-2z"/></svg>