<svg xmlns="http://www.w3.org/2000/svg" width="118" height="90"><path fill="#FFF" d="M0 0h118v90H0z"/><path fill="#1C0000" d="m57 23 7 1c1.327 8.79 1.841 16.477-1 25H50v2h-2v12l3.176-.105q2.069-.043 4.136-.083l2.092-.076c5.091-.073 5.091-.073 7.576 1.588C66 66 66 66 66 69l-3-1-1-2q-3.187-.04-6.375-.062l-3.586-.036C49.081 65.785 49.081 65.785 47 67c-1.65-6.777-3.087-12.826.188-19.375C49.72 45.353 51.638 45.202 55 45c1.672.303 3.34.632 5 1 .087-3.125.14-6.25.188-9.375l.076-2.695.029-2.578.048-2.38L60 27l-3-2zM69 25h3q.287 8.703.537 17.407.088 2.963.187 5.925c.094 2.834.174 5.669.253 8.504l.097 2.686c.053 2.159 0 4.32-.074 6.478l-2 2-3-1c-1.14-2.279-1.129-3.568-1.133-6.098l-.004-2.427.012-2.538-.012-2.548c.01-6.262.01-6.262 1.137-7.389.157-1.56.25-3.125.316-4.691l.127-2.862.12-3.01.13-3.021q.16-3.708.307-7.416M77 25c2.875-.187 2.875-.187 6 0 2.4 3.6 2.417 5.777 2.688 10.063l.261 3.785C86 42 86 42 85 44h-2l-1-16-5-1zM43 23l6 1v2h-2l.07 3.105q.029 2.042.055 4.082l.05 2.042C47.216 39.289 46.8 42.35 45 46h-1z"/><path fill="#1C0000" d="M53 54h8l1 4c-5.415 2.215-5.415 2.215-8.375 1.125L52 58zM18 40h2c-.549 5.267-1.462 10.288-4 15-2.187 1.5-2.187 1.5-4 2l-3-3c3 0 3 0 5 1l.621-2.773.816-3.602.81-3.586C17 42 17 42 18 40M81 55q2.514.428 5 1l1 10-2 1-.812-3.812C83.405 60.006 82.747 57.998 80 56zM75 47h6l1 5-7-2zM19 35l2 1-1 2z"/></svg>