<svg xmlns="http://www.w3.org/2000/svg" width="111" height="91"><path fill="#FEFEFE" d="M0 0h111v91H0z"/><path fill="#130000" d="m56 20 3 1c1.497 4.491 1.444 9.044 1.719 13.75.155 3.26.155 3.26 1.281 6.25l11 1V27h-5l-1-3c6.152.586 6.152.586 8 1 3.128 6.257.9 16.25 0 23q-2.625.039-5.25.063l-2.953.035C64 48 64 48 60 47l1 17-3-1c-.98-4.8-1.058-9.372-.879-14.242l.072-2.329q.116-3.653.245-7.304l.158-4.977Q57.789 28.073 58 22h-2zM92 21c1.938.688 1.938.688 4 2 1.445 4.645 1.15 9.56 1.125 14.375l-.006 2.661C97.07 47.721 96.65 55.343 96 63q-3.343.292-6.687.563l-3.762.316c-3.11.106-5.56-.107-8.551-.879v-2l17-2V42H80l1-3c3.2-1.067 4.885-.948 8.188-.562l2.73.308L94 39c.082-1.895.14-3.791.188-5.687l.105-3.2C93.967 26.646 92.99 24.816 91 22zM27.688 37.313 30 38l-1.875.688C25.385 40.379 24.95 41.992 24 45l1.875-2C28 41 28 41 30 41c-.875 5.75-.875 5.75-2 8l2 2-5 2 1-6-5-1c.597-5.376.597-5.376 2.25-7.937C25 37 25 37 27.688 37.313M13 35c1 3 1 3 1 6l1.875-2C18 37 18 37 20 37l-.937 1.75C18.062 40.869 17.385 42.693 17 45l1 2-2.312-.562C12.91 45.772 12.91 45.772 10 47q.174-2.157.375-4.312c.07-.801.14-1.602.21-2.426C11 38 11 38 13 35"/><path fill="#130000" d="M81 27h6c.981 3.053.981 4.947 0 8h-3c-2.108-2.888-3-4.385-3-8M39.25 37.25 41 38l-1.937 1.25C36.79 41.178 36.398 42.114 36 45h5l-1 2c-2.437.75-2.437.75-5 1-2-2-2-2-2.375-4.375C33 41 33 41 34.75 38.625 37 37 37 37 39.25 37.25M76 52h3l2 5-2 1c-2.125-.937-2.125-.937-4-2zM65 52h4v5h-3z"/></svg>