<svg xmlns="http://www.w3.org/2000/svg" width="59" height="59"><path fill="#120000" d="m13 11 2 1c.379 3.055.379 3.055.563 6.875.232 5.153.232 5.153 1.437 10.125l11 1-1-14-5-2 1-2c2.343.256 4.678.593 7 1 3.138 6.275.823 16.229 0 23q-2.906.039-5.812.063l-3.27.035C18 36 18 36 15 35l1 17h-3c-.782-5.395-1.096-10.546-.879-16l.072-2.185c.075-2.272.16-4.544.245-6.815l.158-4.66Q12.789 16.67 13 11M46 9c2.438.688 2.438.688 5 2 1.277 4.122 1.145 8.36 1.133 12.637l.003 2.184q0 2.273-.006 4.545c-.005 2.324 0 4.648.007 6.972q0 2.213-.004 4.424l.006 2.108c-.024 4.9-.024 4.9-1.139 7.13-2.47.343-4.83.56-7.312.688l-2.053.142c-3.396.203-6.393.278-9.635-.83v-2l17-2V30H35v-3c4.394-.857 8.526-1.09 13-1 .054-2.083.093-4.166.125-6.25l.07-3.516C48.01 13.172 47.608 11.558 46 9"/><path fill="#120000" d="M39.063 14.938 42 15c.981 3.053.981 4.947 0 8h-3l-4-7c1-1 1-1 4.063-1.062M31 40h3l2 5-2 1c-2.125-.937-2.125-.937-4-2zM20 40h4l1 3-1 2-4-1z"/></svg>