<svg xmlns="http://www.w3.org/2000/svg" width="110" height="90"><path fill="#FFF" d="M0 0h110v90H0z"/><path fill="#190909" d="M81 20c1.686 3.371 1.039 7.175.95 10.875-.03 1.32-.03 1.32-.058 2.667q-.063 2.794-.134 5.589c-.07 2.857-.125 5.714-.178 8.572l-.13 5.422-.045 2.601C81.229 61.771 81.229 61.771 79 64V48l-7 2-.402 2.047-.535 2.703-.528 2.672c-.459 2.21-.968 4.393-1.535 6.578h-2l-1-18c4.05-1.35 6.792-.62 11 0l-1-6c-1.837-.772-1.837-.772-4-1-1.772 1.354-1.772 1.354-3 3-1-1-1-1-1.062-3.562L68 36l3.438-.875L75 34l1-2-3.375.563C69 33 69 33 67 32c-.414-2.504-.414-2.504-.625-5.562l-.227-3.067L66 21q2.625-.253 5.25-.5l2.953-.281C76.463 20.042 78.733 20 81 20"/><path fill="#100000" d="m59 20 2 1c3.021 9.064 2.118 20.215 2.188 29.688l.039 2.897.003 2.74.013 2.44C62.975 61.233 62.233 62.861 61 65h-3l.492-2.605c.865-5.782.65-11.564.508-17.395l-.054-2.257c-.067-2.311-.158-4.62-.258-6.93l-.068-2.215c-.203-3.969-.203-3.969-1.901-7.48-1.924-1.251-3.737-2.059-5.907-2.805l-2.167-.762L47 22c3.81-3.81 7.02-2.905 12-2"/><path fill="#100000" d="m41 21 2 1 1 3h5v2l-6 2 2 31c5.792.13 5.792.13 11-1-.812 2.437-.812 2.437-2 5-3.45 1.15-4.302.805-7.625-.375l-2.414-.836C42 62 42 62 41 61c-1.476-13.142-1.87-26.907 0-40"/><path fill="#100000" d="m46 36 6 1c.625 2.875.625 2.875 1 6l-2 2h-3c-1.75-2.25-1.75-2.25-3-5 .313-2.312.313-2.312 1-4"/><path fill="#FFF" d="M75.063 22.938 78 23l1 8-7-1a129 129 0 0 1-1-6c1-1 1-1 4.063-1.062"/><path fill="#100000" d="M15 35h1c.218 5.439.104 9.87-2 15h-2q.463-3.188.938-6.375l.527-3.586C14 37 14 37 15 35"/></svg>