<svg xmlns="http://www.w3.org/2000/svg" width="59" height="59"><defs><mask id="cutout-mask"><rect width="59" height="59" fill="white"/><path d="M41 11h6l1 8c-3.437-.812-3.437-.812-7-2-1-3-1-3 0-6" fill="black"/></mask></defs><path fill="#150201" d="M50 8c1.72 3.44.994 7.389.879 11.164l-.072 2.75q-.116 4.355-.245 8.711l-.158 5.898Q50.21 43.763 50 51l-2 1V36l-7 2c-1.747 3.495-1.859 7.505-2.402 11.348L38 52l-2 1-1-19c4.05-1.35 6.792-.62 11 0-.102-2.947-.102-2.947-1-6-2.463-1.453-2.463-1.453-5-2l-1 4c-2-1-2-1-2.75-2.937L36 25c2-2 2-2 5.063-2.5L44 22l1-2-3.375.563C38 21 38 21 36 20c-.414-2.504-.414-2.504-.625-5.562l-.227-3.067L35 9q2.343-.255 4.688-.5l2.636-.281C44.897 8.009 47.42 7.963 50 8" mask="url(#cutout-mask)"/><path fill="#120000" d="M28 8c1.676 1.121 1.676 1.121 3 3 .512 3.02.512 3.02.688 6.813l.096 2.073c.098 2.371.161 4.741.216 7.114l.066 2.84c.059 2.97.095 5.94.121 8.91l.04 2.886.003 2.723.013 2.421C31.973 49.24 31.228 50.87 30 53h-3l.5-2.25c.704-5.28.629-10.43.5-15.75l-.054-2.358a641 641 0 0 0-.259-7.705l-.067-2.526-.108-2.384-.08-2.133C26.878 15.467 25.904 14.56 24 13c-2.03-.986-2.03-.986-4.187-1.687l-2.168-.762L16 10c3.778-3.778 7.06-3.059 12-2" mask="url(#cutout-mask)"/><path fill="#120000" d="m10 9 2 1 1 3h5v2l-6 2 .219 3.227c.603 9.284.879 18.465.781 27.773l12-1c-2 5-2 5-3.863 5.898-2.484.118-4.03-.334-6.324-1.273l-2.106-.836C11 50 11 50 10 49 8.524 35.858 8.13 22.093 10 9" mask="url(#cutout-mask)"/><path fill="#140201" d="M15 24c2.375-.187 2.375-.187 5 0 2 3 2 3 1.625 6.188L21 33h-4c-1.812-2.25-1.812-2.25-3-5 .313-2.312.313-2.312 1-4" mask="url(#cutout-mask)"/></svg>