<svg xmlns="http://www.w3.org/2000/svg" width="59" height="59"><path fill="#1A0704" d="M48 9c1 1 1 1 1.114 4.877q0 2.595-.016 5.19l-.005 2.753a3599 3599 0 0 1-.03 8.743q-.008 2.954-.014 5.912Q49.032 43.737 49 51h-4c-1.327-3.981-1.07-7.85-1-12h-5l-2 10h-3c-.29-8.555-.29-8.555 2-13 1.968-1.968 5.348-1.662 8-2l1-6c-5.484-.743-5.484-.743-11-1l1-4c4.219-.196 7.17.198 11 2v-6l-15-2V9c5.701-1.387 11.252-.881 17 0"/><path fill="#120000" d="M27 8c1.129 2.79 1.086 3.796-.11 6.621-.54.93-1.082 1.859-1.64 2.816l-1.61 2.81a89 89 0 0 1-3.406 5.288c-1.447 2.374-1.447 2.374-1.082 4.93 1.273 3.806 3.027 7.315 4.79 10.914C25 44 25 44 25 48c-3-1-3-1-4.387-3.434l-1.3-3.004-1.325-2.996C17 36 17 36 17 34h-3l-.402 1.703c-.622 2.39-1.37 4.707-2.16 7.047l-.817 2.422L10 47l3 1v4h-2l-1-2-2 2-1-1c.097-2.149.257-4.294.438-6.437C8.333 32.728 8.088 20.859 8 9h2c1.354 4.063 1.327 8.024 1.523 12.285L12 24l3 2c3.922-5.29 6.716-9.326 7-16zM28 19h2c1.234 4.77 1.113 9.425 1.063 14.313l-.014 2.533Q31.029 38.923 31 42l-3 1z"/></svg>