<svg xmlns="http://www.w3.org/2000/svg" width="105" height="91"><path fill="#FFF" d="M0 0h105v91H0z"/><path fill="#120000" d="M76 28c1 1 1 1 1.114 4.785q0 2.532-.016 5.063l-.005 2.686a3424 3424 0 0 1-.03 8.529q-.008 2.883-.014 5.767Q77.032 61.915 77 69l-4 1c-.634-4.041-1.124-7.907-1-12h-5l-2 10h-3c-.344-5.619.058-9.255 3-14 3.688-.937 3.688-.937 7-1l1-6-11-1 1-4c4.219-.196 7.17.198 11 2v-6l-3.027-.402-3.91-.535-3.903-.528C60 36 60 36 59 35q-.062-3.5 0-7c5.802-1.135 11.164-1.006 17 0M55 27l2 3-.934 1.481a760 760 0 0 0-4.129 6.706l-1.47 2.33c-2.701 4.298-2.701 4.298-3.436 9.186 1.527 3.621 3.182 7.147 4.91 10.676C53 63 53 63 53 67c-3-1-3-1-4.605-3.941l-1.583-3.621-1.605-3.63L44 53l-1.375 2L41 57h-2l-1 9 3 1v4h-2v-3h-2v2h-2l.219-3.348C36.006 53.76 36.113 40.914 36 28h2c1.355 4.066 1.276 8.02 1.426 12.285.275 2.858.275 2.858 2.617 4.086L44 45a598875269872831.6 598875269872831.6 0 0 1 4.688-8.105C50.022 33.95 50.279 32.18 50 29zM11 45h2l1 3 2-3h3v4h2l2-4 4 1c-.75 5.75-.75 5.75-3 8v-6l-1.875 2.375C20 53 20 53 18 55c-1.231-2.463-1.072-4.28-1-7l-4 7h-3z"/><path fill="#120000" d="M56 38h2c1.215 8.114.763 15.854 0 24h-2z"/><path fill="#FFF" d="M61 31h11l-1 3-10-1z"/></svg>