<svg xmlns="http://www.w3.org/2000/svg" width="117" height="90"><path fill="#FFF" d="M0 0h117v90H0z"/><path fill="#120000" d="M71 23v3H56l-2 4-2.125 1.688c-2.357 2.906-2.26 5.04-2.182 8.698.566 4.819 2.374 9.142 4.182 13.614l1.105 2.887C56.505 61.769 56.505 61.769 60 65l-1 4c-4.398-3.852-6.333-7.335-8.25-12.812l-.773-2.042C48.26 49.43 47.47 44.996 47 40l-2 1c-1.565 9.818-1.116 20.082-1 30h-2c-1.315-2.63-1.13-4.596-1.133-7.54l-.006-3.428.014-3.657.006-3.69C40.924 43.753 41.237 34.897 42 26h2l1 6c3.628-1.866 3.628-1.866 6-5h2l-1-3c3.772-3.772 14.138-1.972 19-1"/><path fill="#120000" d="m78 24 3 1c1.501 4.026 1.162 8.356 1.168 12.598l.01 2.517q.007 2.629.007 5.257c.002 2.684.02 5.368.04 8.052q.005 2.556.005 5.111l.022 2.434c-.016 3.87-.055 5.735-2.252 9.031l-1-4-2.187-.437a405 405 0 0 1-5.438-1.126C68.911 63.91 68.911 63.91 66 64l-1 5c-1.125-1.687-1.125-1.687-2-4 .875-2.75.875-2.75 2-5q2.375-.04 4.75-.062l2.672-.036c2.36.09 4.323.429 6.578 1.098v-8h-7v-4h-2v-2q3.5-.062 7 0l1 1c.418-3.29.418-3.29 0-7-2.187-2.77-2.187-2.77-5-5-2.312-2.125-2.312-2.125-4-4v-3c3.436 1.527 6.12 3.6 9 6z"/><path fill="#120000" d="M61 31h4c1.54 3.081 1.143 6.31 1.125 9.688l.012 2.107C66.128 47.295 65.733 51.56 65 56l-5-1v-2h3q-.21-4.657-.437-9.312l-.12-2.67-.127-2.569-.11-2.364C62.058 33.807 62.058 33.807 61 31M15 42h2l1 4 3-4 3 1q-.172 2.22-.375 4.438c-.07.823-.14 1.647-.21 2.496L23 52l-2 1v-7l-1.023 1.531-1.352 1.969-1.336 1.969L16 53h-2zM42 22c2.188.313 2.188.313 4 1l-1 2h-6c1.25-1.562 1.25-1.562 3-3M55 38h5l-3 3-2-1z"/></svg>