<svg xmlns="http://www.w3.org/2000/svg" width="59" height="59"><path fill="#100" d="M11.188 6.375 13 7l-2 3c.315 3.142.315 3.142 1 6 3.552-1.87 5.633-3.146 7-7V7q3.592-.333 7.188-.625l2.04-.195C32.372 5.856 35.284 6.109 39 8l-1 2c-2.206.127-4.416.176-6.625.188-6.028.356-9.175 1.178-13.336 5.535-2.444 5.356-1.216 10.269.64 15.582a409 409 0 0 0 2.196 5.57l1.105 2.875c1.845 5.041 1.845 5.041 5.02 9.25-.375 2.125-.375 2.125-1 4-4.433-3.869-6.303-7.352-8.187-12.875l-.749-2.066C15.526 33.752 14.214 29.409 13 25h-1q-.251 6.093-.5 12.188l-.145 3.486-.136 3.369-.127 3.094A204 204 0 0 0 11 55H9c-1.31-2.621-1.13-4.57-1.133-7.504l-.006-3.413.014-3.645.006-3.683C7.925 27.473 8.269 18.252 9 9L6 8c3-2 3-2 5.188-1.625"/><path fill="#100" d="M45 9h3c1.172 4.193 1.162 8.272 1.168 12.598l.01 2.517q.007 2.629.007 5.257c.002 2.684.02 5.368.04 8.052q.005 2.555.005 5.111l.022 2.434c-.016 3.87-.055 5.735-2.252 9.031l-2-3c-2.552-1.205-2.552-1.205-5-2v-2l-7 1-1 5c-2-3-2-3-1.625-6.187L31 44q2.625-.04 5.25-.062l2.953-.036c2.455.086 4.459.39 6.797 1.098v-8h-7v-4h-2v-2c6.75-.125 6.75-.125 9 1-.248-4.221-.512-6.433-3.312-9.687L40 20c-2.312-2.125-2.312-2.125-4-4v-3c3 0 3 0 5.625 2.438L44 18l1 1z"/><path fill="#100" d="M30 14c2.134 1.712 2.933 2.583 3.372 5.328l-.009 2.707-.002 2.951-.048 3.076.01 3.088c-.056 7.583-.056 7.583-2.323 9.85l-5-3 2-2 2 1q-.21-4.657-.437-9.312l-.12-2.67-.127-2.569-.11-2.364C29.058 17.807 29.058 17.807 28 15zM22 22h5l-1 3-4-1z"/></svg>