<svg xmlns="http://www.w3.org/2000/svg" width="59" height="59"><defs><mask id="cutout-mask"><rect width="59" height="59" fill="white"/><path d="M47 40c.879 6.152.879 6.152 1 8-1.794 1.794-4.442 1.463-6.875 1.688l-3.242.324C35 50 35 50 32 48c-.5-3.437-.5-3.437 0-7 4.244-4.668 9.6-2.457 15-1" fill="black"/></mask></defs><path fill="#120000" d="M50 36c2.28 3.42 2.22 4.682 2.125 8.688l-.055 3.011L52 50c-7.399 2.595-14.626 5.053-22.062 1.563-2.436-3.222-2.861-5.368-2.59-9.364.788-2.658 1.584-3.64 3.777-5.324C36.945 33.839 43.769 34.561 50 36M8 6l5 1-1 6 2.3-.254 3.012-.309 2.989-.316C23 12 23 12 26 13V8h3c1.125 4.75 1.125 4.75 0 7-5.164 1.721-10.593 1.054-16 1v15h17v5l-3-1c-2.393-.226-4.79-.408-7.187-.562l-3.856-.254L13 34q-.251 3.438-.5 6.875l-.281 3.867C12.1 46.492 12 48.246 12 50h-2C4.292 38.583 7.916 18.417 8 6" mask="url(#cutout-mask)"/><path fill="#120000" d="M32 8h3v2l16-1c.765 8.703 1.129 17.265 1 26-2-1-2-1-3-4a66 66 0 0 1-.098-4.23l.01-2.432.026-2.526.013-2.56q.02-3.126.049-6.252h-5v2l-2.687-.562c-3.165-.418-5.261-.246-8.313.562z"/><path fill="#120000" d="M42 21c1 3 1 3 0 6-5.75 1.125-5.75 1.125-8 0 .375-2.937.375-2.937 1-6 2.667-1.333 4.167-.671 7 0"/></svg>