<svg xmlns="http://www.w3.org/2000/svg" width="98" height="90"><path fill="#FFF" d="M0 0h98v90H0z"/><path fill="#100000" d="M78 47c1.875 1.238 1.875 1.238 3 3 .293 2.48.293 2.48.188 5.188l-.083 2.73L81 60c-6.414 3.353-11.746 4.878-19 4-3.062-1.437-3.062-1.437-5-4-.892-3.23-.961-5.78 0-9 5.078-6.54 13.676-5.763 21-4M37 17l5 1-1 6h14v-5h3c1.125 4.75 1.125 4.75 0 7-4.741 1.73-10.047 1.059-15 1l-1 15h17v5l-3-1c-2.393-.226-4.79-.408-7.187-.562l-3.856-.254L42 45q-.252 3.438-.5 6.875l-.281 3.867C41.1 57.492 41 59.246 41 61h-2c-2.047-9.621-2.241-18.975-2.125-28.75q.016-2.23.027-4.46.034-5.396.098-10.79"/><path fill="#FFF" d="M75 50c2 6.625 2 6.625 2 10-3.073.891-5.866 1.163-9.062 1.188l-2.598.042C63 61 63 61 60 59c-.5-2.875-.5-2.875 0-6 4.13-5.37 9.004-4.071 15-3"/><path fill="#100000" d="M62 19h2l2 2c2.007-.287 4.006-.63 6-1 2.674-.091 5.323-.046 8 0 .755 8.356 1.136 16.61 1 25h-2c-.922-2.766-1.118-4.383-1.098-7.23l.01-2.432.025-2.526.014-2.56q.02-3.126.049-6.252h-5v2l-3.312-.562c-3.624-.696-3.624-.696-6.688.562-2-3-2-3-1.625-5.187zM16 45c.75 2.688.75 2.688 1 6-1.938 2.875-1.938 2.875-4 5l-4-1c-.75-2.187-.75-2.187-1-5 2.492-4.153 3.003-5 8-5"/><path fill="#100000" d="M64 32h7v6h-7c-1.245-2.49-.777-3.41 0-6"/><path fill="#FFF" d="M13 47h1v6l-3 1c.875-5.875.875-5.875 2-7"/></svg>