<svg xmlns="http://www.w3.org/2000/svg" width="115" height="91"><path fill="#FFF" d="M0 0h115v91H0z"/><path fill="#120000" d="M72 26c4.602-.177 6.784-.108 11 2v31l-3-1-1-3h-8c-1.486-2.502-2.193-4.197-1.5-7.078 2.045-5.467 2.045-5.467 3.5-6.922q3.5-.062 7 0V30l-7-1zM46 49c1.626.114 3.25.242 4.875.375.905.07 1.81.14 2.742.21C56 50 56 50 58 52c.66 4.837.938 9.448-1.625 13.688C53.2 67.442 51.585 67.645 48 67c-3.58-2.297-5.554-3.921-7.187-7.875.264-4.41 2.38-6.841 5.187-10.125"/><path fill="#FFF" d="m48 52 7 1c1.026 4.41 1.037 6.926-1 11-3.375-.312-3.375-.312-7-1-2.152-3.228-2.2-4.284-2-8h2z"/><path fill="#120000" d="M13 40h8c.75 2.75.75 2.75 1 6-2.02 2.876-3.358 3.825-6.75 4.75L13 51l-1 5c-1.268-3.654-.757-6.49-.062-10.25l.59-3.266zM39 26h28l1 5-1-2c-3.042-.081-6.082-.14-9.125-.187l-2.594-.077C50.006 28.676 46.65 29.241 42 32h-2zM62 38c1.938.375 1.938.375 4 1 1.357 2.714 1.112 4.848 1.098 7.883l-.01 3.535-.025 3.707-.014 3.73Q67.03 62.428 67 67l-2 1c-1.303-2.606-1.194-4.643-1.281-7.559l-.114-3.357-.105-3.522q-.104-3.435-.219-6.87l-.092-3.088C63.1 40.887 63.1 40.887 62 38"/><path fill="#FFF" d="M75 43h5v9c-2.667 1.333-4.167.671-7 0 .875-6.75.875-6.75 2-9"/><path fill="#120000" d="M53 33h5l1 5-5 1c-1.062-1.875-1.062-1.875-2-4z"/><path fill="#FFF" d="M17 42h3c-.187 2.375-.187 2.375-1 5-2.562 1.313-2.562 1.313-5 2 1.875-5.875 1.875-5.875 3-7"/><path fill="#120000" d="M71 68h11v3l-11-1zM45 32c2.063.438 2.063.438 4 1l1 4h-5c-.562-1.937-.562-1.937-1-4zM42 41h3v2h-3z"/></svg>