<svg xmlns="http://www.w3.org/2000/svg" width="59" height="59"><defs><mask id="cutout-mask"><rect width="59" height="59" fill="white"/><path d="m14 34 7 1c1.026 4.41 1.037 6.926-1 11-3.375-.312-3.375-.312-7-1-2.152-3.228-2.2-4.284-2-8h2z" fill="black"/><path d="M42 25h4v9h-7c.75-6.75.75-6.75 3-9" fill="black"/></mask></defs><path fill="#100" d="M38 8c4.602-.177 6.784-.108 11 2v31h-3v-4h-9c-1.486-2.502-2.193-4.197-1.5-7.078 2.045-5.467 2.045-5.467 3.5-6.922q3.5-.062 7 0V12l-7-1zM15.5 30.375c6.111 1.091 6.111 1.091 8.5 3.625.76 4.65 1.065 9.14-1.324 13.313C21 49 21 49 17.688 49.563 13.018 48.85 11.167 47.468 8 44c-1.187-2.875-1.187-2.875-1-6 1.901-4.469 3.627-6.755 8.5-7.625" mask="url(#cutout-mask)"/><path fill="#100" d="m13.762 7.121 3.388.147 3.538.17 3.572.158Q28.63 7.79 33 8l1 5h-2v-2a730 730 0 0 0-8.625-.187l-2.45-.077c-5.146-.062-8.38.6-12.925 3.264H6L5 8c3.248-1.083 5.359-1.034 8.762-.879M28 20c1.938.375 1.938.375 4 1 1.357 2.714 1.112 4.848 1.098 7.883l-.01 3.535-.026 3.707-.013 3.73Q33.03 44.428 33 49h-3l-.076-2.231q-.176-5.01-.361-10.019l-.12-3.512-.127-3.379-.11-3.11c-.18-2.385-.535-4.462-1.206-6.749"/><path fill="#100" d="M19 15h5l1 5-5 1c-1.062-1.875-1.062-1.875-2-4zm29 35 1 3c-2.691 1.346-4.139.772-7.062.188l-2.723-.52L37 52l-1-2c4.084-1.532 7.795-.63 12 0M11 14h4l1 5-3 1-3-3zm-3 9h3v3l-3-1z"/></svg>