<svg xmlns="http://www.w3.org/2000/svg" width="59" height="59"><path fill="#100000" d="M9 5q4.188.21 8.375.438l2.406.119c5.992.33 5.992.33 8.219 1.443.081 2.73.14 5.457.188 8.188l.076 2.33C28.323 22.1 28.21 25.415 25 29c-2.156.496-2.156.496-4.5.438-2.366.102-2.366.102-4.5.562-4.014 4.892-3.34 9.409-4 16h22l1 2-1 2h-2v-2l-1.896.048c-2.826.062-5.652.101-8.479.14l-2.984.076-2.852.029-2.634.048L11 48c-2.152-3.227-2.272-4.205-2.25-7.937l-.016-2.59C9.013 34.88 9.694 33.235 11 31h2l.438-1.937C14 27 14 27 15 26l7-1 1-16h-7l-2-1-.312 1.875C13 12 13 12 10 14zm25 2h3c2.378 3.568 2.401 6.365 2.563 10.5.215 5.325.215 5.325 1.437 10.5l4 1V11h-3V7c4.875.875 4.875.875 6 2 .089 3.03.115 6.037.098 9.066l-.005 2.754a3599 3599 0 0 1-.03 8.743q-.008 2.954-.014 5.912Q48.032 42.737 48 50l-4-1a1180 1180 0 0 1-.062-6.25l-.036-3.516c.08-2.644.312-4.732 1.098-7.234l-7 1c-1.593-4.984-2.312-9.422-2.562-14.687C35.196 12.58 35.196 12.58 34 7"/><path fill="#100000" d="M27 38h3v5h-3zm-9 0h2l1 3-1 2h-2z"/></svg>