<svg xmlns="http://www.w3.org/2000/svg" width="113" height="90"><path fill="#FFF" d="M0 0h113v90H0z"/><path fill="#120000" d="M43 24q3.938.21 7.875.438l2.262.119c5.636.33 5.636.33 7.863 1.443.081 2.73.14 5.457.188 8.188l.076 2.33C61.322 41.082 61.25 44.468 58 48c-2.48.488-2.48.488-5.187.313l-2.731-.137L48 48l-.437 2.438C47 53 47 53 46 54a123 123 0 0 0-.562 5.563L45 65h22l1 2-1 2h-2v-2l-1.896.048c-2.826.062-5.652.101-8.479.14l-2.984.076-2.852.029-2.634.048L44 67c-2.152-3.227-2.272-4.205-2.25-7.937l-.016-2.59c.279-2.593.96-4.238 2.266-6.473h2l.438-1.937C47 46 47 46 48 45l7-1 1-16-9-1v3l-4 1c-1.125-4.75-1.125-4.75 0-7M67 26h3c2.239 3.616 2.355 6.867 2.563 11.063.242 5.057.242 5.057 1.437 9.937l3 1V30l-2-1 1-3c3.875.875 3.875.875 5 2 .089 3.03.115 6.037.098 9.066l-.005 2.754a3599 3599 0 0 1-.03 8.743q-.008 2.954-.014 5.912Q81.032 61.737 81 69l-4-1V52h-5c-3.03-5.556-3.154-9.833-2.973-16.11-.034-3.667-.78-6.462-2.027-9.89M19 42l-1.312 1.625C15.793 46.291 14.407 49.052 13 52c-1.231-3.694-.644-6.206 0-10 3.75-1.125 3.75-1.125 6 0"/><path fill="#120000" d="M60 57h3v5h-3zM52 57h1v5h-2z"/></svg>