<svg xmlns="http://www.w3.org/2000/svg" width="109" height="91"><path fill="#FFF" d="M0 0h109v91H0z"/><path fill="#100000" d="m79 30 5 1c.857 5.167 1.135 10.108 1.098 15.34l-.005 2.324c-.005 2.425-.018 4.849-.03 7.273q-.008 2.483-.014 4.963Q85.032 66.95 85 73h-2c-1.607-3.215-1.057-6.436-1-10a348 348 0 0 0-4.687-1.062l-2.637-.598c-2.874-.365-4.913-.187-7.676.66-1.203 2.405-1.1 3.95-1.062 6.625l.027 2.477L66 73c-1.938-.375-1.938-.375-4-1-1.224-2.448-1.016-3.734-.75-6.437l.203-2.372C62.146 60.414 62.571 59.555 65 58c2.808-.379 5.375-.6 8.188-.687L81 57V40l-7.422.781C71 41 71 41 67 41l-1-4c1.825.03 1.825.03 3.688.063 3.227-.006 6.198-.12 9.312-1.063 1.245-2.49.777-3.41 0-6"/><path fill="#130303" d="m41 30 9 1v3h-3l1 3c-.278 2.34-.605 4.676-1 7 3.492.1 6.594-.222 10-1v2h2l-.035-1.863-.028-2.45-.035-2.425C59 36 59 36 60 33l-3-1 1-2h4c1.953 13.248 1.953 13.248-1.375 17.938C59 49 59 49 56 49v-2l-3.375.563C49 48 49 48 47 47l-1 8h7l2 4c-5.625 2-5.625 2-9 2v11h2v2c-1.937-.812-1.937-.812-4-2-1.789-5.366-1.185-11.135-1.187-16.75l-.038-3.828C42.765 45.25 42.802 39.804 45 34l-4-1z"/><path fill="#100000" d="M20 49c3.187.875 3.187.875 6 2-1.152 2.468-2.048 4.048-4 6l4 1v2c-4.054 1.158-6.218.837-10-1 3.75-4.875 3.75-4.875 6-6l-5-2zM34.188 49.313 36 50v2l-1.875.75C31.649 54.206 31.049 55.378 30 58l6-1-1 3c-2.375.625-2.375.625-5 1l-2-2c.189-3.457.39-6.071 2.313-9C32 49 32 49 34.188 49.313M15 50v2l-4 2 3 2-1 4c-4.75 1.125-4.75 1.125-7 0v-2l4-1-2-2v-4c2.463-1.231 4.28-1.072 7-1M58 50c1.938.375 1.938.375 4 1l1 2-1 3h-3zM69 66h5l1 5h-3v-2l-3-1zM53 64l4 2v3l-4-1z"/></svg>