<svg xmlns="http://www.w3.org/2000/svg" width="59" height="59"><path fill="#120000" d="m42 6 5 1c1.069 9.07 1.118 18.074 1.063 27.188q-.008 2.164-.014 4.33Q48.032 43.759 48 49h-2c-1.607-3.215-1.057-6.436-1-10-7.44-2.002-7.44-2.002-15-1-1.203 2.405-1.1 3.95-1.062 6.625l.027 2.477L29 49c-1.938-.375-1.938-.375-4-1-1.224-2.448-1.016-3.734-.75-6.437l.203-2.372C25.13 36.481 25.686 35.573 28 34c2.996-.547 2.996-.547 6.438-.75l3.433-.234C41 33 41 33 45 34V15l-5.312.938-2.989.527c-2.78.492-2.78.492-5.699 1.535l-2-5c1.825.03 1.825.03 3.688.063 4.401 0 8.131-.67 12.312-2.063V9h-3z"/><path fill="#140101" d="M22 6h3c.222 2.249.427 4.499.625 6.75l.352 3.797c.022 3.291-.05 4.837-1.977 7.453-2.5.875-2.5.875-5 1l-2-2-3 1c-2.688-.938-2.688-.938-5-2l1 9 7 1v4l-8 1q.212 2.407.438 4.813c.08.893.162 1.786.246 2.707.25 2.607.25 2.607 1.316 5.48H8c-1.786-3.847-2.257-6.886-2.266-11.113l-.007-3.533.023-3.666-.023-3.631C5.74 21.687 6.094 16.089 8 10L4 8V7h9l-1 3h-2v10c3.722 0 6.463-.192 10-1v2h2l-.062-3.75C21.932 14.336 22.07 11.79 23 9h-2z"/><path fill="#120000" d="M32 42h5l1 5c-2.169-.506-4-1-6-2zM21 26l4 1v5l-4-2zM16 40l4 2v3l-4-1z"/></svg>