<svg xmlns="http://www.w3.org/2000/svg" width="100" height="91"><path fill="#FFF" d="M0 0h100v91H0z"/><path fill="#120000" d="m71.563 22.813 3.378.019c2.556.14 4.613.506 7.059 1.168q.037 7.552.055 15.106.008 2.568.02 5.136c.013 2.465.018 4.93.023 7.395l.015 2.308c0 3.813-.187 7.348-1.113 11.055h-2c-1.206-3.619-1.108-6.925-1.062-10.687l.013-2.127q.02-2.594.049-5.186l-2.23.254-2.957.309-2.918.316C67 48 67 48 62 47l-1 17c-2.836 1.418-4.99.863-8.125.563l-3.32-.31L47 64v-1l11-1 1-14h-3v-3c2.306-1.153 3.508-1.072 6.063-1 4.725.061 9.251-.405 13.937-1l-1-7-2.52-.148-3.293-.227c-1.078-.07-2.157-.14-3.269-.21C63 35 63 35 60 33c-.408-2.712-.133-5.244 0-8 3.993-1.888 7.163-2.244 11.563-2.187M53 21h2q.04 3.938.063 7.875l.025 2.262c.025 5.636.025 5.636-1.088 7.863h-2v2h-2v12h-3V38l-7 2v26h-2c-1.173-9.222-1.114-18.348-1.062-27.625q.008-2.389.013-4.777Q36.968 27.799 37 22h3l-.062 3.75c-.01 4.21-.01 4.21 1.062 8.25 2.296 1.148 4.077 1.308 6.625 1.563l2.477.253L52 36c-.095-.664-.19-1.328-.29-2.012-1.1-8.77-1.1-8.77 1.29-12.988"/><path fill="#FFF" d="m72.75 24.938 2.422.027L77 25l1 8-15-1-1-3c2-3 2-3 3.828-3.684 2.342-.34 4.556-.413 6.922-.378"/><path fill="#120000" d="M13 34h3v3l2 1-3 2c-1.213 3.054-1.213 3.054-2 6l4-1v2c-3.75 1.125-3.75 1.125-6 0l1-7h-2v-2h3zM44 25l4 2-1 5h-2v-5l-2-1zM66 55h6v3h-6z"/></svg>