<svg xmlns="http://www.w3.org/2000/svg" width="59" height="59"><defs><mask id="cutout-mask"><rect width="59" height="59" fill="white"/><path d="m43.75 11.938 2.422.027L48 12l1 7c-3.941 1.03-6.836.877-10.812.063l-2.958-.59L33 18c.75-2.437.75-2.437 2-5 2.83-1.252 5.686-1.108 8.75-1.062" fill="black"/></mask></defs><path fill="#120000" d="m43.125 9.875 3.695-.008C50 10 50 10 53 11q.037 7.794.055 15.588.008 2.652.02 5.302.017 3.813.023 7.626l.015 2.39c0 3.54-.159 6.689-1.113 10.094h-2c-1.594-3.188-1.102-6.629-1.062-10.125l.013-2.285q.02-2.795.049-5.59l-2.266.219-2.984.281-2.953.281c-2.26.177-4.53.219-6.797.219-1.48 2.962-1.353 5.835-1.562 9.125l-.254 3.883L32 51c-3.338.753-6.393 1.114-9.812 1.063l-2.395-.028L18 52l-1-2 11-2 2-13h-3l-1-3c2.66-.886 4.48-1.18 7.23-1.316l2.432-.127 2.526-.12 2.56-.13Q43.874 30.149 47 30l-2-7-3.625.188C37.265 23.209 34.552 22.13 31 20v-9c4.089-.98 7.926-1.134 12.125-1.125" mask="url(#cutout-mask)"/><path fill="#120000" d="M9 8h2l.148 2.809.227 3.629c.07 1.194.14 2.39.21 3.62.138.971.274 1.942.415 2.942 2.296 1.148 4.077 1.308 6.625 1.563l2.477.253L23 23c-.095-.748-.19-1.495-.29-2.266-.11-.984-.22-1.97-.335-2.984l-.352-2.953C22 11.866 22.47 10.455 24 8h2c.108 2.564.187 5.123.25 7.688l.102 2.185C26.446 23.045 25.458 25.01 22 29c-.686 2.879-.686 2.879-.75 5.813l-.172 2.957L21 40h-3l-1-14-5 2-1 26H9c-.955-8.998-1.156-17.913-1.13-26.95q.005-3.408-.007-6.818 0-2.17.004-4.337l.004-3.943C8 9 8 9 9 8" mask="url(#cutout-mask)"/><path fill="#120000" d="M15 12h3l1 6-3 1v-4h-2zm21 30h7v3h-7z"/></svg>