<svg xmlns="http://www.w3.org/2000/svg" width="59" height="59"><defs><mask id="cutout-mask"><rect width="59" height="59" fill="white"/><path d="M36.563 29.938 39 30v9c-2.437-1.187-2.437-1.187-5-3-.875-2.625-.875-2.625-1-5 1-1 1-1 3.563-1.062M48 29h1v9h-2c-.81-2.915-1.218-4.461-.062-7.312z" fill="black"/></mask></defs><path fill="#0D0000" d="M9 6h24c1.386 2.771 1.188 4.933 1 8l-2 3c-2.61.328-2.61.328-5.75.25L23 17.172c-3.06-.175-6.006-.507-9-1.172v7l1.938-.5c4.038-.66 7.98-.58 12.062-.5l2 4H14l1 5 8 2v4h-9v11l2.52-.254 3.293-.309 3.269-.316C26 47 26 47 29 48v-2h3c.043 1.666.04 3.334 0 5-1 1-1 1-3.371 1.133l-3.067-.008-2.996.008C18.032 51.963 13.516 51.452 9 51z" mask="url(#cutout-mask)"/><path fill="#0D0000" d="M39 7h2q.254 6.406.5 12.813l.145 3.623q.2 5.28.355 10.564l.102 3.2.054 2.937.057 2.565c-.234 2.52-.945 4.127-2.213 6.298-1-1-1-1-1.062-4.062L39 42l-2.812-.812C31.455 39.424 31.455 39.424 30 37c-.523-2.778-.621-5.233 0-8 2.25-2.062 2.25-2.062 5-3 2.313.313 2.313.313 4 1l-1-2c-.098-2.49-.14-4.947-.125-7.437l-.012-2.065C37.87 12.394 38.011 9.967 39 7M49 7l2 1v42l-2 1 .176-1.793c.142-2.488.183-4.738-.176-7.207a283 283 0 0 0-5-5c0-3.625 0-3.625 1-7l1.53-1.42c1.957-2.104 1.891-3.408 1.982-6.248l.107-2.705.069-2.814.103-2.85Q48.914 10.483 49 7" mask="url(#cutout-mask)"/></svg>