<svg xmlns="http://www.w3.org/2000/svg" width="108" height="90"><path fill="#FFF" d="M0 0h108v90H0z"/><path fill="#0D0000" d="m43.225 26.886 2.904.016 3.135.01 3.298.026 3.311.013Q59.937 26.97 64 27c1.125 6.625 1.125 6.625 0 10-5.246 2.623-13.458 1.198-19 0v7l1.938-.5c4.038-.66 7.98-.58 12.062-.5l2 4H45v6l3.313-.187C52 53 52 53 53.937 54.5L55 56l-1 2h-9v11h15v-2h3c.043 1.666.04 3.334 0 5-1 1-1 1-3.117 1.133l-2.758-.008-2.68.008C49.612 72.946 44.813 72.47 40 72q-.037-9.372-.055-18.744-.008-3.19-.02-6.382-.017-4.575-.023-9.151l-.015-2.901v-2.67l-.007-2.361c.182-2.713.636-2.766 3.345-2.905"/><path fill="#0D0000" d="M70 28h2q.254 6.83.482 13.66.08 2.32.166 4.637.123 3.352.23 6.703l.083 2.062c.145 4.772-.278 9.23-.961 13.938h-2v-6l-2.812-.812C62.52 60.448 62.52 60.448 61 58c-.508-3.993-.59-6.125 1.688-9.5C65 47 65 47 67.75 47.25L70 48l-1-2c-.098-2.49-.14-4.947-.125-7.437l-.012-2.065c.006-3.104.148-5.531 1.137-8.498M80 28l2 1v42l-2 1V61h-3c-2.327-3.491-2.503-4.892-2-9l1.977-1.55c3.168-3.836 2.699-7.868 2.773-12.7l.09-2.836q.105-3.456.16-6.914M14 52h2l-1 8 1.023-1.75L17.375 56l1.336-2.25L20 52h2c-.75 6.625-.75 6.625-3 10v-2l-3 2c-2.187-.375-2.187-.375-4-1 .875-6.75.875-6.75 2-9"/><path fill="#FFF" d="M67.563 50.938 70 51v9c-2.437-.625-2.437-.625-5-2-.875-3.062-.875-3.062-1-6 1-1 1-1 3.563-1.062M79 50h1v10l-3-3c.435-5.435.435-5.435 2-7"/></svg>