<svg xmlns="http://www.w3.org/2000/svg" width="113" height="91"><path fill="#FFF" d="M0 0h113v91H0z"/><path fill="#130000" d="m67.188 19.75 3.855.11L74 20c1.032 3.749 1.217 7.102 1 11-2 2-2 2-4.426 2.266l-2.886-.016-2.864.016C61.874 32.988 59.681 32.23 57 31c-.36-6.247-.36-6.247 1.063-9.219 2.911-2.677 5.257-2.173 9.124-2.031M54.563 43.688l3.44-.051C61 44 61 44 62.888 45.309c2.282 3.467 1.277 7.727.613 11.629L63 59h-2V48l-6-1v10l-3 1V48h-5l-2 10c-2-2-2-2-2.117-4.312L43.125 51l.195-2.687C44 46 44 46 45.645 44.707c3.04-.913 5.744-1.009 8.917-1.02M85 34v2l-2.562-.187C78.143 36.047 75.77 36.93 72 39c-1.043 2.069-1.043 2.069-1 4l3.125.438c3.3.479 6.588 1 9.875 1.562l1 3c-2.27.054-4.542.093-6.812.125l-3.833.07C71 48 71 48 68 46c-.991-2.82-1.054-4.677-.562-7.625C70.87 33.156 79.414 31.207 85 34"/><path fill="#FFF" d="M62 23h9l1 7-12-1c1-4 1-4 2-6"/><path fill="#130000" d="m53.875 15.375 2.367.336L58 16v3l-1.863-.254-2.45-.308-2.425-.317c-2.43-.269-2.43-.269-5.262.879l-2 15c-2.198-4.396-2.1-5.993-1.625-10.75l.336-3.547L43 17c3.902-1.481 6.735-2.252 10.875-1.625M72 15h12l1 10h-3l-1-8-9 1zM12 44l1.75 1.125c2.25 1.167 2.25 1.167 4.5 0L20 44l-1 4-.5 2.063c-.43 1.665-.956 3.305-1.5 4.937l-2-2-4 2 1.063-2.687c.955-3.375.909-5.01-.063-8.313M69 55c3.147.7 6.026 1.76 9 3-1.687 1.188-1.687 1.188-4 2-2.75-1.25-2.75-1.25-5-3zM82.563 51.938 85 52l1 7h-2l-1-5-4-1c1-1 1-1 3.563-1.062"/><path fill="#130000" d="m49 22 4 1v3h-3z"/></svg>