<svg xmlns="http://www.w3.org/2000/svg" width="59" height="59"><defs><mask id="cutout-mask"><rect width="59" height="59" fill="white"/><path d="M27 15h9l1 7-12-1z" fill="black"/></mask></defs><path fill="#120000" d="m32.188 11.813 3.855.082L39 12c1.032 3.749 1.217 7.102 1 11-2 2-2 2-4.426 2.23l-2.886-.043-2.864-.019c-2.698-.16-5.192-.569-7.824-1.168-.081-1.437-.14-2.874-.187-4.312l-.106-2.426C22 15 22 15 23.062 13.219c2.995-1.884 5.639-1.502 9.125-1.406M19.5 35.75l3.469-.078C26 36 26 36 27.887 37.309 29.758 40.152 29.28 42.692 29 46c-1 3.438-1 3.438-2 6h-1l-1-11-5-2v11h-3V40l-5-1-.148 1.898-.227 2.477c-.07.812-.14 1.624-.21 2.46C11 48 11 48 9 50c-.994-4.97-1.209-8.362 1-13 3.337-1.112 5.988-1.203 9.5-1.25M50 26v2l-2.562-.187C43.143 28.047 40.77 28.93 37 31c-1.043 2.069-1.043 2.069-1 4 2.694.862 4.682.988 7.563.938C47 36 47 36 50 38v2c-2.249.108-4.5.186-6.75.25l-3.797.14C36 40 36 40 33.543 38.177 32 36 32 36 32.063 32.937 33.028 29.912 33.425 28.777 36 27c4.534-1.914 9.387-3.307 14-1" mask="url(#cutout-mask)"/><path fill="#120000" d="m18.938 7.375 2.34.336L23 8v3l-1.863-.254-2.45-.309-2.425-.316c-2.43-.269-2.43-.269-5.262.879L9 26l-2-1V9c7.875-2.25 7.875-2.25 11.938-1.625M36 7h13l1 10h-3c-.826-2.892-1-4.887-1-8l-3 1c-2.333.04-4.667.044-7 0zM34 47c3.024.588 6.018 1.227 9 2v2c-1.687.688-1.687.688-4 1-2.75-1.312-2.75-1.312-5-3zM44 44h6l1 7h-2l-1-5h-4z"/><path fill="#120000" d="m14 14 4 1v3h-3z"/></svg>