<svg xmlns="http://www.w3.org/2000/svg" width="59" height="59"><defs><mask id="rect-mask"><rect width="59" height="59" fill="white"/><path d="M49 9q.062 3.5 0 7c-1 1-1 1-4.062 1.063L42 17v-7c2.49-.687 4.379-1 7-1M40 11v6h-6c-1-3-1-3 0-6 3-1 3-1 6 0" fill="black"/></mask></defs><path fill="#000" d="M43.25 6.75c1.243.015 2.485.03 3.766.047C50 7 50 7 51 8c1.66 5.756 2.758 11.4 1.506 17.345-.508 2.667-.694 5.174-.787 7.885l-.114 2.932-.21 6.086-.114 2.92-.092 2.665C51 50 51 50 50 52h-2v-2l-9-1v-2c5.625-1.125 5.625-1.125 9 0l1-8-8-1 1-3 6-1 1-4H39l-1-3 12-1-1-6-3.176.07q-2.069.029-4.136.055l-2.092.05c-3.767.037-5.38-.031-8.596-2.175-.714-5.626-.714-5.626 0-8 3.915-3.275 7.27-3.354 12.25-3.25" mask="url(#rect-mask)"/><path fill="#000" d="M30 27c5.754 4.987 5.754 4.987 6.238 8.953.18 5.554-.501 8.65-4.238 13.047-3.497 1.748-7.185 1.558-11 1-3.895-1.828-5.758-4.455-7.5-8.375-.659-4.776-.017-8.425 2.75-12.437C20.728 26.149 24.847 25.355 30 27m-12 4c-2.492 3.737-2.458 5.573-2 10 1.841 3.068 3.328 4.62 6.438 6.375 3.17.773 4.566 1.008 7.562-.375 2.114-2.476 3.34-4.806 4-8-.89-4.249-2.777-7.14-6.312-9.625-3.708-.517-6.232.256-9.688 1.625M50 25c2.228 3.342 2.21 4.178 2.012 8.035l-.143 2.951-.181 3.077-.147 3.087c-.396 7.56-.396 7.56-1.541 9.85h-2v-2l-9-1v-2c5.625-1.125 5.625-1.125 9 0l1-8-8-1 1-3 6-1 1-4H39l-1-3zM11 8h14l1 5h-2v-2h-6l-.875 2.375C16 16 16 16 14 18a126 126 0 0 0-2 6l-2-1q-.04-2.062-.062-4.125l-.036-2.32C10 14 10 14 11 8"/><path fill="#000" d="M23 36q2.514.428 5 1v4h-5c-.562-1.937-.562-1.937-1-4z"/></svg>