<svg xmlns="http://www.w3.org/2000/svg" width="109" height="91"><path fill="#FFF" d="M0 0h109v91H0z"/><path fill="#FFF" d="M64 43c4.16 3.513 5.788 5.798 6.313 11.25C69.919 58.97 68.645 61.11 66 65c-3.193 1.597-6.525 1.374-10 1-3.739-1.662-5.85-3.546-8-7-.778-4.767-1.002-9.42 1.625-13.562C54.512 42.48 58.433 41.223 64 43"/><path fill="#130000" d="m77.125 22.875 3.195-.008C83 23 83 23 85 24c.379 1.812.379 1.812.563 4 .064 2.79.064 2.79 1.437 5q-.344 2.323-.71 4.642c-.782 6.374-.708 12.868-.895 19.282l-.114 3.44-.092 3.133C85 66 85 66 84 68h-2v-2l-9-1v-2c3.287-.8 4.71-1.097 8 0l2-8-3.437-.375L76 54l-1-2 8-1 1-6-2.117.254-2.758.309-2.742.316C74 46 74 46 72 45v-2l11-1v-6l-3.176.105q-2.069.043-4.136.083l-2.092.076c-5.083.073-5.083.073-7.557-1.553C64.304 31.853 64.706 29.239 65 26c3.516-3.516 7.323-3.137 12.125-3.125"/><path fill="#130000" d="M64 43c4.16 3.513 5.788 5.798 6.313 11.25C69.919 58.97 68.645 61.11 66 65c-3.193 1.597-6.525 1.374-10 1-3.739-1.662-5.85-3.546-8-7-.778-4.767-1.002-9.42 1.625-13.562C54.512 42.48 58.433 41.223 64 43m-13 5c-2.152 3.788-2.14 5.453-1.062 9.688C52.504 61.809 54.364 62.72 59 64c2.742.186 2.742.186 5-1 2.395-3.08 4-6.072 4-10-1.847-4-3.784-6.534-7.937-8.125-3.853.157-5.907.902-9.063 3.125M45 24h14l1 4-2 1-2-2h-4l-1 4h-2l-3 9-2-1c-.09-5.152.153-9.92 1-15M84 47h1c.029 3.125.047 6.25.063 9.375l.025 2.695.01 2.578.016 2.38C85 66 85 66 84 68h-2v-2l-9-1v-2c3.287-.8 4.71-1.097 8 0l2-8-3.437-.375L76 54l-1-2 8-1zM13 44h2c-.875 5.75-.875 5.75-2 8 2.667-2.49 4.557-4.634 6-8h2c-.975 5.802-2.013 10.84-5 16h-6v-3l5 2 1-5h-4c-1.467-3.815-.433-6.29 1-10"/><path fill="#FFF" d="M83 25q.061 3.5 0 7c-1 1-1 1-4.062 1.063L76 33v-7c2.49-.687 4.379-1 7-1M74 26v7h-6l-1-5c2.647-1.46 3.894-2 7-2"/><path fill="#130000" d="M25 37h2c1.186 4.233.719 7.104-.437 11.313l-.872 3.238L25 54l-2-1zM32 37c2.406 3.61 2.067 4.39 1.25 8.5l-.547 2.906C32 51 32 51 30 54c-1.592-3.184-.287-6.28.438-9.625l.447-2.14c.365-1.747.74-3.491 1.115-5.235M57 52l5 1-1 4-5-1z"/></svg>